<svg viewBox="0 0 96 36" fill="none" xmlns="http://www.w3.org/2000/svg">
<path d="M55.1973 14.5068L55.6807 14.6094L53.9814 20H38.6006V19.458H39.3477C40.1875 19.458 40.7881 19.1846 41.1494 18.6377C41.3545 18.3252 41.457 17.6025 41.457 16.4697V3.65234C41.457 2.41211 41.3203 1.63574 41.0469 1.32324C40.666 0.893555 40.0996 0.678711 39.3477 0.678711H38.6006V0.136719H47.5947V0.678711C46.54 0.668945 45.7979 0.766602 45.3682 0.97168C44.9482 1.17676 44.6602 1.43555 44.5039 1.74805C44.3477 2.06055 44.2695 2.80762 44.2695 3.98926V16.4697C44.2695 17.2803 44.3477 17.8369 44.5039 18.1396C44.6211 18.3447 44.8018 18.4961 45.0459 18.5938C45.29 18.6914 46.0518 18.7402 47.3311 18.7402H48.7812C50.3047 18.7402 51.374 18.6279 51.9893 18.4033C52.6045 18.1787 53.166 17.7832 53.6738 17.2168C54.1816 16.6406 54.6895 15.7373 55.1973 14.5068ZM63.8398 6.18652C65.8711 6.18652 67.502 6.95801 68.7324 8.50098C69.7773 9.81934 70.2998 11.333 70.2998 13.042C70.2998 14.2432 70.0117 15.459 69.4355 16.6895C68.8594 17.9199 68.0635 18.8477 67.0479 19.4727C66.042 20.0977 64.9189 20.4102 63.6787 20.4102C61.6572 20.4102 60.0508 19.6045 58.8594 17.9932C57.8535 16.6357 57.3506 15.1123 57.3506 13.4229C57.3506 12.1924 57.6533 10.9717 58.2588 9.76074C58.874 8.54004 59.6797 7.6416 60.6758 7.06543C61.6719 6.47949 62.7266 6.18652 63.8398 6.18652ZM63.3857 7.13867C62.8682 7.13867 62.3457 7.29492 61.8184 7.60742C61.3008 7.91016 60.8809 8.44727 60.5586 9.21875C60.2363 9.99023 60.0752 10.9814 60.0752 12.1924C60.0752 14.1455 60.4609 15.8301 61.2324 17.2461C62.0137 18.6621 63.0391 19.3701 64.3086 19.3701C65.2559 19.3701 66.0371 18.9795 66.6523 18.1982C67.2676 17.417 67.5752 16.0742 67.5752 14.1699C67.5752 11.7871 67.0625 9.91211 66.0371 8.54492C65.3438 7.60742 64.46 7.13867 63.3857 7.13867ZM78.8398 6.18652C80.8711 6.18652 82.502 6.95801 83.7324 8.50098C84.7773 9.81934 85.2998 11.333 85.2998 13.042C85.2998 14.2432 85.0117 15.459 84.4355 16.6895C83.8594 17.9199 83.0635 18.8477 82.0479 19.4727C81.042 20.0977 79.9189 20.4102 78.6787 20.4102C76.6572 20.4102 75.0508 19.6045 73.8594 17.9932C72.8535 16.6357 72.3506 15.1123 72.3506 13.4229C72.3506 12.1924 72.6533 10.9717 73.2588 9.76074C73.874 8.54004 74.6797 7.6416 75.6758 7.06543C76.6719 6.47949 77.7266 6.18652 78.8398 6.18652ZM78.3857 7.13867C77.8682 7.13867 77.3457 7.29492 76.8184 7.60742C76.3008 7.91016 75.8809 8.44727 75.5586 9.21875C75.2363 9.99023 75.0752 10.9814 75.0752 12.1924C75.0752 14.1455 75.4609 15.8301 76.2324 17.2461C77.0137 18.6621 78.0391 19.3701 79.3086 19.3701C80.2559 19.3701 81.0371 18.9795 81.6523 18.1982C82.2676 17.417 82.5752 16.0742 82.5752 14.1699C82.5752 11.7871 82.0625 9.91211 81.0371 8.54492C80.3438 7.60742 79.46 7.13867 78.3857 7.13867ZM91.1738 2.17285V6.58203H94.3086V7.60742H91.1738V16.3086C91.1738 17.1777 91.2959 17.7637 91.54 18.0664C91.7939 18.3691 92.1162 18.5205 92.5068 18.5205C92.8291 18.5205 93.1416 18.4229 93.4443 18.2275C93.7471 18.0225 93.9814 17.7246 94.1475 17.334H94.7188C94.377 18.291 93.8936 19.0137 93.2686 19.502C92.6436 19.9805 91.999 20.2197 91.335 20.2197C90.8857 20.2197 90.4463 20.0977 90.0166 19.8535C89.5869 19.5996 89.2695 19.2432 89.0645 18.7842C88.8594 18.3154 88.7568 17.5977 88.7568 16.6309V7.60742H86.6328V7.12402C87.1699 6.90918 87.7168 6.54785 88.2734 6.04004C88.8398 5.52246 89.3428 4.91211 89.7822 4.20898C90.0068 3.83789 90.3193 3.15918 90.7197 2.17285H91.1738Z" fill="#C4DCFF"/>
<path d="M38.924 33V25.85H43.786V27.434H40.816V28.556H43.346V30.14H40.816V31.416H43.896V33H38.924ZM45.5527 33L47.3897 30.14L45.6627 27.5H47.6867L48.1377 28.27C48.2184 28.424 48.3064 28.5817 48.4017 28.743C48.5044 28.9043 48.596 29.062 48.6767 29.216H48.7207C48.7794 29.062 48.8454 28.9043 48.9187 28.743C48.992 28.5817 49.058 28.424 49.1167 28.27L49.4797 27.5H51.4487L49.7107 30.36L51.5477 33H49.5237L49.0177 32.23C48.9224 32.076 48.8234 31.9183 48.7207 31.757C48.618 31.5957 48.519 31.438 48.4237 31.284H48.3797C48.3064 31.438 48.2294 31.5957 48.1487 31.757C48.0754 31.911 48.002 32.0687 47.9287 32.23L47.5217 33H45.5527ZM56.2734 33.132C55.8407 33.132 55.4337 33.0697 55.0524 32.945C54.6784 32.813 54.3521 32.626 54.0734 32.384C53.8021 32.1347 53.5857 31.8303 53.4244 31.471C53.2704 31.1117 53.1934 30.7047 53.1934 30.25C53.1934 29.7953 53.2814 29.3883 53.4574 29.029C53.6334 28.6697 53.8681 28.369 54.1614 28.127C54.4621 27.8777 54.8067 27.6907 55.1954 27.566C55.5841 27.434 55.9911 27.368 56.4164 27.368C56.8491 27.368 57.2451 27.434 57.6044 27.566C57.9637 27.698 58.2607 27.874 58.4954 28.094L57.6374 29.26C57.4321 29.1207 57.2377 29.0253 57.0544 28.974C56.8784 28.9153 56.7024 28.886 56.5264 28.886C56.1084 28.886 55.7711 29.0107 55.5144 29.26C55.2577 29.502 55.1294 29.832 55.1294 30.25C55.1294 30.668 55.2541 31.0017 55.5034 31.251C55.7527 31.493 56.0717 31.614 56.4604 31.614C56.7317 31.614 56.9774 31.5663 57.1974 31.471C57.4174 31.3757 57.6227 31.2693 57.8134 31.152L58.5614 32.34C58.2167 32.6187 57.8391 32.8203 57.4284 32.945C57.0251 33.0697 56.6401 33.132 56.2734 33.132ZM60.4711 33V25.344H62.3631V27.126L62.2531 28.094H62.2971C62.4731 27.918 62.7041 27.753 62.9901 27.599C63.2761 27.445 63.6244 27.368 64.0351 27.368C64.6364 27.368 65.0764 27.5733 65.3551 27.984C65.6338 28.3873 65.7731 28.93 65.7731 29.612V33H63.8811V29.854C63.8811 29.546 63.8334 29.3223 63.7381 29.183C63.6501 29.0437 63.4851 28.974 63.2431 28.974C63.0671 28.974 62.9131 29.0107 62.7811 29.084C62.6491 29.1573 62.5098 29.26 62.3631 29.392V33H60.4711ZM69.3988 33.132C69.1128 33.132 68.8598 33.088 68.6398 33C68.4198 32.9047 68.2328 32.78 68.0788 32.626C67.9248 32.472 67.8075 32.2923 67.7268 32.087C67.6535 31.8817 67.6168 31.6653 67.6168 31.438C67.6168 31.13 67.6791 30.8587 67.8038 30.624C67.9358 30.3893 68.1375 30.1913 68.4088 30.03C68.6875 29.8613 69.0468 29.7293 69.4868 29.634C69.9268 29.5387 70.4621 29.4727 71.0928 29.436C71.0561 29.238 70.9461 29.095 70.7628 29.007C70.5868 28.9117 70.3448 28.864 70.0368 28.864C69.8021 28.864 69.5601 28.9043 69.3108 28.985C69.0688 29.0583 68.7828 29.172 68.4528 29.326L67.7928 28.094C68.2108 27.8593 68.6361 27.6797 69.0688 27.555C69.5015 27.4303 69.9488 27.368 70.4108 27.368C70.7995 27.368 71.1515 27.4193 71.4668 27.522C71.7895 27.6173 72.0608 27.7713 72.2808 27.984C72.5081 28.1893 72.6805 28.457 72.7978 28.787C72.9225 29.1097 72.9848 29.4947 72.9848 29.942V33H71.4448L71.3128 32.428H71.2688C70.9975 32.626 70.7041 32.7947 70.3888 32.934C70.0735 33.066 69.7435 33.132 69.3988 33.132ZM70.0148 31.68C70.2348 31.68 70.4328 31.6397 70.6088 31.559C70.7848 31.471 70.9461 31.372 71.0928 31.262V30.558C70.7555 30.5727 70.4768 30.602 70.2568 30.646C70.0441 30.6827 69.8755 30.734 69.7508 30.8C69.6261 30.866 69.5381 30.9393 69.4868 31.02C69.4428 31.1007 69.4208 31.1887 69.4208 31.284C69.4208 31.548 69.6188 31.68 70.0148 31.68ZM74.9825 33V27.5H76.5225L76.6545 28.16H76.6985C76.9185 27.9473 77.1788 27.764 77.4795 27.61C77.7802 27.4487 78.1322 27.368 78.5355 27.368C79.1442 27.368 79.5878 27.5733 79.8665 27.984C80.1452 28.3873 80.2845 28.93 80.2845 29.612V33H78.3925V29.854C78.3925 29.546 78.3448 29.3223 78.2495 29.183C78.1615 29.0437 77.9965 28.974 77.7545 28.974C77.5785 28.974 77.4245 29.0107 77.2925 29.084C77.1605 29.1573 77.0212 29.26 76.8745 29.392V33H74.9825ZM84.4932 35.266C84.1486 35.266 83.8259 35.2403 83.5252 35.189C83.2319 35.145 82.9716 35.068 82.7442 34.958C82.5169 34.848 82.3372 34.705 82.2052 34.529C82.0806 34.3603 82.0182 34.1513 82.0182 33.902C82.0182 33.462 82.2969 33.11 82.8542 32.846V32.802C82.7002 32.6993 82.5682 32.5747 82.4582 32.428C82.3556 32.2813 82.3042 32.0907 82.3042 31.856C82.3042 31.6653 82.3666 31.4783 82.4912 31.295C82.6159 31.1117 82.7736 30.954 82.9642 30.822V30.778C82.7516 30.646 82.5719 30.459 82.4252 30.217C82.2859 29.975 82.2162 29.6927 82.2162 29.37C82.2162 29.0327 82.2822 28.7393 82.4142 28.49C82.5462 28.2333 82.7259 28.0243 82.9532 27.863C83.1806 27.6943 83.4372 27.5697 83.7232 27.489C84.0166 27.4083 84.3246 27.368 84.6472 27.368C84.9919 27.368 85.3036 27.412 85.5822 27.5H87.8042V28.864H86.8142C86.8509 28.93 86.8839 29.0143 86.9132 29.117C86.9499 29.2197 86.9682 29.326 86.9682 29.436C86.9682 29.7587 86.9096 30.0373 86.7922 30.272C86.6749 30.4993 86.5099 30.6863 86.2972 30.833C86.0919 30.9797 85.8462 31.0897 85.5602 31.163C85.2816 31.229 84.9772 31.262 84.6472 31.262C84.4346 31.262 84.2036 31.2363 83.9542 31.185C83.8882 31.2363 83.8406 31.284 83.8112 31.328C83.7892 31.3647 83.7782 31.4233 83.7782 31.504C83.7782 31.6287 83.8442 31.7167 83.9762 31.768C84.1082 31.812 84.3282 31.834 84.6362 31.834H85.5712C86.3046 31.834 86.8692 31.9477 87.2652 32.175C87.6612 32.395 87.8592 32.758 87.8592 33.264C87.8592 33.5647 87.7786 33.836 87.6172 34.078C87.4632 34.3273 87.2396 34.54 86.9462 34.716C86.6529 34.892 86.2972 35.0277 85.8792 35.123C85.4686 35.2183 85.0066 35.266 84.4932 35.266ZM84.6472 30.14C84.8306 30.14 84.9882 30.0777 85.1202 29.953C85.2522 29.8283 85.3182 29.634 85.3182 29.37C85.3182 29.1133 85.2522 28.9263 85.1202 28.809C84.9882 28.6843 84.8306 28.622 84.6472 28.622C84.4639 28.622 84.3062 28.6843 84.1742 28.809C84.0496 28.9263 83.9872 29.1133 83.9872 29.37C83.9872 29.634 84.0496 29.8283 84.1742 29.953C84.3062 30.0777 84.4639 30.14 84.6472 30.14ZM84.7902 34.1C85.1642 34.1 85.4686 34.0523 85.7032 33.957C85.9452 33.869 86.0662 33.748 86.0662 33.594C86.0662 33.4473 85.9929 33.3557 85.8462 33.319C85.6996 33.2823 85.4869 33.264 85.2082 33.264H84.6582C84.4456 33.264 84.2769 33.2567 84.1522 33.242C84.0276 33.2347 83.9176 33.22 83.8222 33.198C83.7269 33.264 83.6572 33.3263 83.6132 33.385C83.5692 33.4437 83.5472 33.5133 83.5472 33.594C83.5472 33.77 83.6609 33.8983 83.8882 33.979C84.1156 34.0597 84.4162 34.1 84.7902 34.1ZM92.4199 33.132C91.9873 33.132 91.5803 33.0697 91.1989 32.945C90.8249 32.813 90.4986 32.626 90.2199 32.384C89.9486 32.1347 89.7323 31.8303 89.5709 31.471C89.4169 31.1117 89.3399 30.7047 89.3399 30.25C89.3399 29.8027 89.4206 29.3993 89.5819 29.04C89.7433 28.6807 89.9559 28.38 90.2199 28.138C90.4913 27.8887 90.7993 27.698 91.1439 27.566C91.4959 27.434 91.8553 27.368 92.2219 27.368C92.6546 27.368 93.0323 27.4377 93.3549 27.577C93.6849 27.7163 93.9599 27.907 94.1799 28.149C94.3999 28.391 94.5649 28.6733 94.6749 28.996C94.7849 29.3187 94.8399 29.6633 94.8399 30.03C94.8399 30.1987 94.8289 30.3563 94.8069 30.503C94.7923 30.6497 94.7776 30.756 94.7629 30.822H91.2319C91.3126 31.13 91.4739 31.3537 91.7159 31.493C91.9579 31.6323 92.2806 31.702 92.6839 31.702C92.9039 31.702 93.1166 31.6763 93.3219 31.625C93.5346 31.5663 93.7619 31.482 94.0039 31.372L94.6199 32.494C94.2899 32.7067 93.9269 32.868 93.5309 32.978C93.1349 33.0807 92.7646 33.132 92.4199 33.132ZM92.2879 28.798C91.7453 28.798 91.3969 29.062 91.2429 29.59H93.1679C93.0873 29.062 92.7939 28.798 92.2879 28.798Z" fill="#F8F9FF"/>
<path d="M16.3256 19.6347L9.31847 26.6418L10.5872 27.9104L8.89561 28.3333L7.72339 27.1611C7.18212 27.8482 6.49981 28.6147 5.72395 29.3905C4.94815 30.1663 4.18159 30.8487 3.49457 31.39L3.821 31.7164L3.39808 32.1394L2.97528 31.7165C2.93129 32.0259 2.79032 32.3242 2.55233 32.5622C1.96844 33.146 1.0218 33.146 0.437914 32.5622C-0.145971 31.9783 -0.145971 31.0316 0.437914 30.4477C0.675906 30.2097 0.974167 30.0687 1.28356 30.0248L0.860792 29.602L1.28367 29.1791L1.6101 29.5055C2.15136 28.8185 2.83372 28.0519 3.60954 27.2761C4.38534 26.5003 5.15189 25.8179 5.83892 25.2767L4.66679 24.1045L5.08966 22.4129L6.35828 23.6816L13.3654 16.6745L14.7398 18.0489L7.94412 24.8445L8.15555 25.056L14.9512 18.2603L16.3256 19.6347Z" fill="#80C2FF"/>
<path d="M16.9434 16.2682L18.3178 17.6425L32.7886 3.1717L33 7.62939e-05L29.8284 0.211496L15.3576 14.6823L16.732 16.0567L31.4142 1.37444L31.6257 1.58588L16.9434 16.2682Z" fill="#80C2FF"/>
<path fill-rule="evenodd" clip-rule="evenodd" d="M3.17163 0.211442L26.6417 23.6815L27.9103 22.4129L28.3332 24.1044L27.161 25.2766C27.8481 25.8178 28.6146 26.5002 29.3905 27.276C30.1663 28.0518 30.8486 28.8184 31.3899 29.5054L30.4515 30.4438L30.4564 30.439L31.7163 29.1791L32.1392 29.6019L31.7164 30.0247C32.0258 30.0687 32.3241 30.2097 32.5621 30.4476C33.1459 31.0315 33.1459 31.9782 32.5621 32.5621C31.9782 33.1459 31.0315 33.1459 30.4476 32.5621C30.2097 32.3241 30.0687 32.0258 30.0247 31.7164L29.6019 32.1392L29.179 31.7164L30.439 30.4564L30.4438 30.4515L29.5054 31.3899C28.8184 30.8486 28.0518 30.1663 27.276 29.3904C26.5002 28.6146 25.8179 27.8481 25.2766 27.161L24.1044 28.3333L22.4128 27.9104L23.6815 26.6417L0.211442 3.17163L0 0L3.17163 0.211442ZM25.0559 24.8444L1.58579 1.37429L1.37435 1.58573L24.8444 25.0558L25.0559 24.8444Z" fill="#C4DCFF"/>
</svg>
