<svg width="725" height="491" viewBox="0 0 725 491" fill="none" xmlns="http://www.w3.org/2000/svg">
<path d="M0 10C0 4.47716 4.47715 0 10 0H715C720.523 0 725 4.47715 725 10V434.311C444.025 509.747 285.294 510.046 0 434.311V10Z" fill="#A5FFBE"/>
<mask id="mask0" style="mask-type:alpha" maskUnits="userSpaceOnUse" x="0" y="0" width="725" height="491">
<path d="M0 20C0 8.9543 8.95431 0 20 0H705C716.046 0 725 8.95431 725 20V434.311C444.025 509.747 285.294 510.046 0 434.311V20Z" fill="#57F554"/>
</mask>
<g mask="url(#mask0)">
<path d="M322.041 256.483C320.353 256.061 318.635 255.771 316.903 255.617C316.004 255.552 315.116 255.843 314.431 256.428C313.746 257.012 313.318 257.843 313.241 258.74C313.163 259.638 313.442 260.53 314.017 261.223C314.593 261.916 315.417 262.355 316.314 262.445C317.685 262.567 319.044 262.797 320.379 263.132C320.652 263.199 320.932 263.232 321.213 263.232C322.049 263.231 322.856 262.925 323.483 262.371C324.109 261.816 324.511 261.052 324.612 260.222C324.714 259.392 324.509 258.553 324.035 257.864C323.562 257.175 322.852 256.682 322.041 256.48V256.483Z" fill="black"/>
<path d="M344.604 258.737C344.566 258.288 344.44 257.851 344.233 257.451C344.026 257.051 343.742 256.696 343.398 256.407C343.053 256.117 342.654 255.898 342.225 255.762C341.795 255.627 341.343 255.578 340.895 255.618C339.162 255.771 337.444 256.061 335.757 256.483C334.945 256.685 334.236 257.178 333.762 257.867C333.288 258.557 333.083 259.395 333.185 260.226C333.287 261.056 333.689 261.82 334.316 262.374C334.942 262.929 335.749 263.235 336.586 263.235C336.866 263.235 337.146 263.202 337.419 263.135C338.754 262.8 340.113 262.57 341.484 262.448C341.932 262.409 342.369 262.283 342.769 262.075C343.168 261.868 343.523 261.584 343.813 261.239C344.103 260.894 344.322 260.496 344.457 260.067C344.593 259.637 344.643 259.186 344.604 258.737Z" fill="black"/>
<path d="M463.5 220L490 179.5L519 214.5L490 250.5L463.5 220Z" fill="#A5FFBE"/>
<path d="M349.5 334.5V321.5L361 310.5L371 312C372.333 314.5 375.4 319.9 377 321.5C379 323.5 377 330.5 377 334.5C377 338.5 378 340.5 377 343.5C376 346.5 374 349 371 349H359C355.8 349 353 347.333 352 346.5C351.167 343.5 349.5 336.9 349.5 334.5Z" fill="#A5FFBE" stroke="black"/>
<path d="M226.348 491.143C226.501 491.143 226.653 491.133 226.805 491.113C227.706 490.993 228.522 490.519 229.074 489.797C229.625 489.075 229.868 488.164 229.748 487.263C226.411 462.218 227.971 435.202 230.576 413.537C231.551 415.22 232.735 416.773 234.098 418.16C236.585 420.686 239.867 423.937 243.555 427.381C241.161 458.53 246.984 487.195 247.235 488.41C247.395 489.181 247.815 489.874 248.425 490.372C249.036 490.87 249.799 491.142 250.587 491.143H267.407C268.191 491.142 268.952 490.872 269.562 490.378C270.171 489.884 270.593 489.195 270.756 488.428C276.606 460.881 291.723 438.568 297.356 430.964C305.501 437.609 314.477 443.165 324.056 447.494C326.824 448.76 329.881 449.26 332.908 448.94C335.935 448.62 338.82 447.493 341.262 445.676C349.226 439.788 356.259 432.736 362.127 424.757C392.027 448.59 400.895 488.034 400.984 488.442C401.15 489.206 401.572 489.891 402.18 490.382C402.789 490.873 403.547 491.141 404.329 491.142H435.76C436.609 491.141 437.428 490.824 438.057 490.253C438.686 489.682 439.081 488.898 439.165 488.053C441.184 467.671 439.032 447.092 432.838 427.569H454.95C462.859 461.527 460.05 487.031 460.017 487.315C459.912 488.217 460.169 489.123 460.731 489.835C461.293 490.548 462.115 491.008 463.017 491.115C463.151 491.131 463.286 491.139 463.422 491.139C464.261 491.138 465.07 490.83 465.696 490.272C466.323 489.715 466.723 488.947 466.822 488.114C466.979 486.785 470.429 455.872 458.959 415.678H473.472C474.922 419.326 477.735 422.267 481.316 423.878V487.522C481.298 488.423 481.622 489.298 482.224 489.969C482.826 490.641 483.661 491.058 484.559 491.138C485.024 491.163 485.489 491.093 485.926 490.932C486.362 490.772 486.762 490.524 487.1 490.203C487.438 489.883 487.707 489.497 487.89 489.07C488.074 488.642 488.169 488.181 488.169 487.716V437.604L495.955 442.115V487.522C495.937 488.423 496.261 489.298 496.863 489.969C497.465 490.641 498.3 491.058 499.198 491.138C499.663 491.163 500.128 491.093 500.565 490.932C501.001 490.772 501.401 490.524 501.739 490.203C502.077 489.883 502.346 489.497 502.529 489.07C502.713 488.642 502.808 488.181 502.808 487.716V423.433C505.214 422.149 507.225 420.236 508.629 417.898C510.033 415.56 510.775 412.885 510.778 410.158V391.558C510.775 388.831 510.033 386.156 508.629 383.818C507.225 381.481 505.213 379.568 502.808 378.284V289.821C506.275 286.937 508.843 283.119 510.208 278.821C510.85 276.698 511.021 274.459 510.708 272.263L520.365 247.824C521.48 245.045 522.043 242.076 522.023 239.082C521.997 236.638 521.911 229.915 517.523 224.855L520.84 220.355C521.62 219.297 522.042 218.018 522.047 216.703C522.051 215.389 521.637 214.107 520.865 213.043L494.127 176.228C493.619 175.528 492.951 174.96 492.179 174.572C491.407 174.184 490.553 173.986 489.688 173.996C488.824 174.006 487.975 174.222 487.211 174.628C486.448 175.034 485.793 175.617 485.302 176.328L459.769 213.317C459.092 214.297 458.706 215.448 458.654 216.637C458.602 217.827 458.887 219.007 459.476 220.042L462.612 225.557C458.919 228.155 456.223 231.935 454.97 236.272C454.003 239.74 454.009 243.407 454.988 246.872C455.966 250.336 457.88 253.465 460.519 255.914L471.668 266.536C467.984 279.336 474.168 289.514 478.268 294.515C480.244 296.929 481.322 299.953 481.318 303.072V377.834C478.048 379.307 475.408 381.895 473.869 385.134L447.255 384.179C438.051 364.361 425.782 346.118 410.899 330.12C422.672 327.32 429.767 319.51 430.871 307.607C430.881 307.507 430.886 307.397 430.886 307.291C430.886 306.863 430.808 296.727 424.046 289.2C422.327 287.286 421.025 285.035 420.224 282.59C419.422 280.145 419.139 277.56 419.391 275C420.118 266.883 417.227 254.815 399.325 243.417C396.105 241.38 393.4 238.625 391.422 235.367C389.445 232.11 388.248 228.439 387.927 224.642C386.387 204.608 378.178 171 340.449 171C339.661 171.013 322.022 171.447 312.421 183.482C306.66 181.982 292.469 180.215 277.742 193.133C266.402 203.079 264.814 221.887 265.479 235.912C265.688 239.528 265.082 243.144 263.706 246.494C262.329 249.843 260.218 252.841 257.527 255.265C252.719 259.414 248.927 264.609 246.442 270.453C243.957 276.296 242.845 282.632 243.191 288.972C243.382 295.772 245.328 302.407 248.841 308.232C246.379 310.278 244.678 313.093 244.012 316.223C243.19 320.13 242.594 324.081 242.227 328.056C239.368 327.708 236.476 328.366 234.049 329.916C232.567 330.86 231.304 332.11 230.346 333.583C229.389 335.056 228.758 336.717 228.497 338.455C227.315 346.193 226.923 354.031 227.327 361.849C227.51 365.269 228.718 368.555 230.794 371.28C228.383 381.888 216.357 438.663 222.954 488.169C223.063 488.992 223.468 489.747 224.092 490.294C224.716 490.841 225.518 491.143 226.348 491.143ZM513.992 245.308L508.413 259.426L498.862 248.201L513.191 230.448C514.846 233.062 515.14 236.359 515.17 239.158C515.18 241.265 514.78 243.354 513.992 245.308ZM487.251 185.572L489.997 212.372C490.083 213.214 490.478 213.995 491.106 214.564C491.734 215.132 492.55 215.448 493.397 215.45C493.515 215.45 493.633 215.444 493.75 215.432C494.654 215.339 495.484 214.891 496.058 214.186C496.632 213.481 496.902 212.577 496.81 211.673L494.41 188.292L513.765 214.94L493.727 221.694L467.15 214.694L487.251 185.572ZM490.037 227.807L487.859 243.653L469.959 224.611L468.559 222.15L490.037 227.807ZM465.246 250.951C463.532 249.354 462.284 247.322 461.634 245.072C460.984 242.821 460.956 240.437 461.554 238.172C462.384 235.294 464.176 232.788 466.631 231.072L501.527 268.204C502.604 269.329 503.367 270.717 503.74 272.23C504.113 273.742 504.084 275.326 503.654 276.823C502.841 279.382 501.408 281.7 499.483 283.572L465.246 250.951ZM488.171 305.636L495.957 313.095V376.518C495.88 376.518 495.805 376.506 495.728 376.506H488.171V305.636ZM479.263 391.558C479.265 389.384 480.129 387.299 481.667 385.762C483.204 384.224 485.289 383.36 487.463 383.358H495.727C497.901 383.36 499.986 384.224 501.523 385.762C503.06 387.299 503.925 389.384 503.927 391.558V410.158C503.925 412.332 503.06 414.417 501.523 415.954C499.985 417.491 497.901 418.356 495.727 418.358H487.46C485.286 418.356 483.201 417.491 481.664 415.954C480.127 414.417 479.262 412.332 479.26 410.158L479.263 391.558ZM271.743 462.458C270.435 461.426 269.441 460.05 268.869 458.486C268.297 456.921 268.172 455.228 268.506 453.596L270.758 442.814C270.903 442.121 270.829 441.399 270.547 440.749C270.265 440.1 269.789 439.553 269.184 439.185C258.855 432.907 245.827 420.304 238.984 413.351C237.396 411.74 236.161 409.816 235.356 407.703C234.551 405.589 234.194 403.331 234.308 401.072C234.589 395.755 235.041 390.831 235.559 386.409C243.302 388.019 251.236 388.506 259.118 387.855L255.505 400.628C255.372 401.095 255.341 401.585 255.412 402.066C255.484 402.546 255.656 403.006 255.919 403.414C262.169 413.136 277.342 428.414 285.393 436.249C280.093 444.574 275.525 453.344 271.743 462.459V462.458ZM393.007 329.372C392.853 331.589 391.906 333.676 390.339 335.252C388.773 336.829 386.692 337.789 384.476 337.957L380.741 338.257C380.997 336.86 381.086 335.438 381.005 334.02C380.773 329.824 379.976 325.678 378.637 321.694C377.639 318.768 375.872 316.165 373.521 314.158C377.99 310.91 382.164 307.275 385.994 303.294C386.228 303.046 386.523 302.862 386.849 302.762C387.176 302.661 387.522 302.647 387.856 302.72C388.177 302.783 388.476 302.929 388.722 303.145C388.969 303.36 389.155 303.636 389.261 303.945C392.186 312.088 393.46 320.732 393.007 329.372ZM333.273 291.934C332.336 292.509 331.267 292.831 330.169 292.871C329.07 292.911 327.981 292.666 327.005 292.161C321.064 289.004 315.867 284.612 311.764 279.281C308.018 274.481 305.681 268.733 305.015 262.681C304.653 259.492 304.441 255.971 304.376 252.175C307.907 246.047 314.212 236.12 320.035 232.151C323.423 238.29 328.033 243.67 333.58 247.959C339.126 252.248 345.493 255.356 352.287 257.091C352.148 259.772 351.964 262.427 351.709 264.991C351.122 271.221 348.708 277.139 344.771 282.002C341.513 285.925 337.627 289.281 333.273 291.934ZM341.019 294.94V315.172C333.944 314.477 326.93 313.26 320.035 311.531V296.041C321.298 296.841 322.581 297.595 323.898 298.265C325.923 299.29 328.175 299.781 330.443 299.694C332.71 299.606 334.918 298.943 336.858 297.765C338.082 297.023 339.506 296.072 341.019 294.94ZM272.195 302.455C272.403 301.906 272.724 301.407 273.135 300.988C273.547 300.57 274.041 300.242 274.587 300.024C275.132 299.807 275.717 299.706 276.303 299.727C276.89 299.747 277.466 299.89 277.995 300.145C280.952 302.479 303.941 319.594 345.206 322.412C344.919 323.365 344.715 324.341 344.595 325.329C344.495 326.209 344.426 327.084 344.379 327.955C304.679 327.366 277.459 311.983 270.714 307.75C271.038 305.942 271.534 304.169 272.195 302.455ZM351.395 326.133C351.713 323.54 352.972 321.153 354.934 319.427C356.896 317.702 359.423 316.757 362.036 316.772H362.103C364.309 316.771 366.461 317.456 368.261 318.733C370.06 320.011 371.417 321.816 372.143 323.9C373.284 327.3 373.962 330.839 374.159 334.42C374.314 336.854 373.632 339.268 372.226 341.261C370.82 343.255 368.776 344.707 366.431 345.379L365.57 345.627C364.216 346.021 362.798 346.144 361.396 345.989C359.995 345.833 358.637 345.403 357.403 344.722C356.168 344.041 355.08 343.123 354.201 342.02C353.322 340.918 352.669 339.652 352.28 338.297C351.183 334.341 350.884 330.206 351.4 326.133H351.395ZM472.405 391.94V408.829H418.142C413.509 408.822 408.979 407.464 405.107 404.921C395.496 398.553 386.319 391.554 377.634 383.972C384.534 375.245 385.834 362.15 385.999 355.072C395.046 366.114 405.659 377.484 412.121 384.226C415.647 387.92 420.481 390.085 425.585 390.257L472.405 391.94ZM439.54 383.903L425.825 383.411C422.503 383.299 419.358 381.89 417.064 379.485C412.954 375.198 407.14 369.01 401.152 362.257C401.011 362.036 392.33 348.309 409.883 339.239C421.721 352.735 431.697 367.757 439.545 383.903H439.54ZM262.082 260.387C265.539 257.285 268.254 253.446 270.027 249.154C271.801 244.861 272.587 240.225 272.327 235.588C271.734 223.067 272.976 206.431 282.263 198.288C297.646 184.788 311.83 190.416 312.409 190.655C313.153 190.972 313.986 191.015 314.759 190.778C315.532 190.54 316.196 190.036 316.634 189.355C323.729 178.319 340.402 177.855 340.507 177.855C371.047 177.855 379.436 203.585 381.096 225.169C381.501 230.026 383.026 234.724 385.55 238.893C388.075 243.062 391.531 246.591 395.647 249.201C407.517 256.758 413.367 265.468 412.569 274.391C412.248 277.888 412.649 281.414 413.747 284.749C414.845 288.085 416.616 291.16 418.951 293.783C420.388 295.417 421.526 297.292 422.313 299.321C421.2 304.064 412.992 305.06 412.992 305.06C398.461 305.981 394.992 294.04 394.992 294.04V294.057C389.941 278.575 379.686 261.468 358.751 252.557C324.951 238.17 327.636 219.218 327.751 218.482C327.873 217.798 327.785 217.093 327.498 216.461C327.211 215.828 326.739 215.298 326.143 214.94C325.548 214.582 324.858 214.413 324.164 214.457C323.471 214.5 322.807 214.753 322.261 215.182C311.89 223.118 303.413 233.259 297.442 244.872V244.858L297.365 245.018C297.278 245.19 297.192 245.361 297.107 245.533C294.654 250.34 278.719 279.293 250.788 279.407C252.411 272.018 256.371 265.349 262.082 260.387ZM235.276 339.472C235.388 338.702 235.666 337.965 236.091 337.313C236.516 336.661 237.077 336.109 237.737 335.696C238.407 335.268 239.161 334.989 239.949 334.877C240.736 334.765 241.538 334.824 242.301 335.048L244.113 335.581C247.547 337.276 278.113 351.832 314.297 351.832C314.752 351.84 315.204 351.757 315.626 351.588C316.049 351.419 316.433 351.168 316.758 350.849C317.082 350.53 317.34 350.15 317.516 349.73C317.692 349.311 317.782 348.86 317.782 348.406C317.782 347.951 317.692 347.5 317.516 347.081C317.34 346.661 317.082 346.281 316.758 345.962C316.433 345.643 316.049 345.392 315.626 345.223C315.204 345.054 314.752 344.971 314.297 344.979C283.577 344.979 256.359 333.646 248.924 330.265C249.246 326.025 249.844 321.811 250.716 317.65C251.117 315.798 252.203 314.167 253.756 313.082C255.31 311.998 257.215 311.54 259.092 311.802L265.804 312.75C270.727 316.062 299.804 334.25 344.604 334.815C344.831 336.627 345.195 338.419 345.693 340.176C346.743 343.841 348.956 347.066 351.998 349.364C355.04 351.662 358.747 352.908 362.56 352.916C364.224 352.915 365.88 352.679 367.478 352.216L368.207 352.006C371.277 367.663 365.795 378.041 362.099 382.964C359.376 386.658 357.916 391.13 357.935 395.719V418.819C352.238 427.031 345.225 434.246 337.178 440.172C335.721 441.256 334 441.929 332.195 442.12C330.389 442.312 328.565 442.015 326.914 441.261C317.3 436.933 308.342 431.276 300.303 424.455V399.693C300.339 394.381 298.372 389.251 294.795 385.325C322.218 381.464 346.111 359.225 346.111 359.225C346.905 358.784 347.492 358.045 347.741 357.171C347.991 356.297 347.883 355.36 347.441 354.566C347 353.771 346.261 353.185 345.387 352.935C344.513 352.686 343.576 352.794 342.782 353.235C320.575 365.577 285.171 378.678 242.603 370.999C240.53 370.627 238.621 369.627 237.137 368.133C237.068 368.053 236.993 367.979 236.917 367.905C235.273 366.15 234.301 363.872 234.171 361.471C233.793 354.12 234.163 346.749 235.276 339.472Z" fill="black"/>
</g>
<path d="M71 346.5L100 308L129 346.5L100 381.5L71 346.5Z" fill="#A5FFBE" stroke="black" stroke-width="7" stroke-linecap="round" stroke-linejoin="round"/>
<path d="M100 310L102.5 340.5" stroke="black" stroke-width="7" stroke-linecap="round" stroke-linejoin="round"/>
<path d="M72.5 346.5L99 355.5L127.5 346.5" stroke="black" stroke-width="7" stroke-linecap="round" stroke-linejoin="round"/>
<path d="M102.5 354.5L98.5 380" stroke="black" stroke-width="7" stroke-linecap="round" stroke-linejoin="round"/>
<path d="M101.5 378.5L104.5 356.5L124 349L101.5 378.5Z" fill="black" fill-opacity="0.82"/>
<path d="M102 206.5L131 168L160 206.5L131 241.5L102 206.5Z" fill="#A5FFBE" stroke="black" stroke-width="7" stroke-linecap="round" stroke-linejoin="round"/>
<path d="M131 170L133.5 200.5" stroke="black" stroke-width="7" stroke-linecap="round" stroke-linejoin="round"/>
<path d="M103.5 206.5L130 215.5L158.5 206.5" stroke="black" stroke-width="7" stroke-linecap="round" stroke-linejoin="round"/>
<path d="M133.5 214.5L129.5 240" stroke="black" stroke-width="7" stroke-linecap="round" stroke-linejoin="round"/>
<path d="M132.5 238.5L135.5 216.5L155 209L132.5 238.5Z" fill="black" fill-opacity="0.82"/>
<path d="M203 93.5L232 55L261 93.5L232 128.5L203 93.5Z" fill="#A5FFBE" stroke="black" stroke-width="7" stroke-linecap="round" stroke-linejoin="round"/>
<path d="M232 57L234.5 87.5" stroke="black" stroke-width="7" stroke-linecap="round" stroke-linejoin="round"/>
<path d="M204.5 93.5L231 102.5L259.5 93.5" stroke="black" stroke-width="7" stroke-linecap="round" stroke-linejoin="round"/>
<path d="M234.5 101.5L230.5 127" stroke="black" stroke-width="7" stroke-linecap="round" stroke-linejoin="round"/>
<path d="M233.5 125.5L236.5 103.5L256 96L233.5 125.5Z" fill="black" fill-opacity="0.82"/>
<path d="M356 74.5L385 36L414 74.5L385 109.5L356 74.5Z" fill="#A5FFBE" stroke="black" stroke-width="7" stroke-linecap="round" stroke-linejoin="round"/>
<path d="M385 38L387.5 68.5" stroke="black" stroke-width="7" stroke-linecap="round" stroke-linejoin="round"/>
<path d="M357.5 74.5L384 83.5L412.5 74.5" stroke="black" stroke-width="7" stroke-linecap="round" stroke-linejoin="round"/>
<path d="M387.5 82.5L383.5 108" stroke="black" stroke-width="7" stroke-linecap="round" stroke-linejoin="round"/>
<path d="M386.5 106.5L389.5 84.5L409 77L386.5 106.5Z" fill="black" fill-opacity="0.82"/>
<path d="M520 93.5L549 55L578 93.5L549 128.5L520 93.5Z" fill="#A5FFBE" stroke="black" stroke-width="7" stroke-linecap="round" stroke-linejoin="round"/>
<path d="M549 57L551.5 87.5" stroke="black" stroke-width="7" stroke-linecap="round" stroke-linejoin="round"/>
<path d="M521.5 93.5L548 102.5L576.5 93.5" stroke="black" stroke-width="7" stroke-linecap="round" stroke-linejoin="round"/>
<path d="M551.5 101.5L547.5 127" stroke="black" stroke-width="7" stroke-linecap="round" stroke-linejoin="round"/>
<path d="M550.5 125.5L553.5 103.5L573 96L550.5 125.5Z" fill="black" fill-opacity="0.82"/>
<path d="M608 235.5L637 197L666 235.5L637 270.5L608 235.5Z" fill="#A5FFBE" stroke="black" stroke-width="7" stroke-linecap="round" stroke-linejoin="round"/>
<path d="M637 199L639.5 229.5" stroke="black" stroke-width="7" stroke-linecap="round" stroke-linejoin="round"/>
<path d="M609.5 235.5L636 244.5L664.5 235.5" stroke="black" stroke-width="7" stroke-linecap="round" stroke-linejoin="round"/>
<path d="M639.5 243.5L635.5 269" stroke="black" stroke-width="7" stroke-linecap="round" stroke-linejoin="round"/>
<path d="M638.5 267.5L641.5 245.5L661 238L638.5 267.5Z" fill="black" fill-opacity="0.82"/>
<path d="M568 377.5L597 339L626 377.5L597 412.5L568 377.5Z" fill="#A5FFBE" stroke="black" stroke-width="7" stroke-linecap="round" stroke-linejoin="round"/>
<path d="M597 341L599.5 371.5" stroke="black" stroke-width="7" stroke-linecap="round" stroke-linejoin="round"/>
<path d="M569.5 377.5L596 386.5L624.5 377.5" stroke="black" stroke-width="7" stroke-linecap="round" stroke-linejoin="round"/>
<path d="M599.5 385.5L595.5 411" stroke="black" stroke-width="7" stroke-linecap="round" stroke-linejoin="round"/>
<path d="M598.5 409.5L601.5 387.5L621 380L598.5 409.5Z" fill="black" fill-opacity="0.82"/>
</svg>
