<svg width="896" height="492" viewBox="0 0 896 492" fill="none" xmlns="http://www.w3.org/2000/svg">
<path d="M0 9.99999C0 4.47714 4.47715 0 10 0H886C891.523 0 896 4.47715 896 10V435.196C548.754 510.785 352.584 511.084 0 435.196V9.99999Z" fill="#FDFFAC"/>
<mask id="mask0" style="mask-type:alpha" maskUnits="userSpaceOnUse" x="0" y="0" width="896" height="492">
<path d="M0 9.99999C0 4.47714 4.47715 0 10 0H886C891.523 0 896 4.47715 896 10V435.196C548.754 510.785 352.584 511.084 0 435.196V9.99999Z" fill="#E7E7E7"/>
</mask>
<g mask="url(#mask0)">
<path d="M306.144 522.153C306.182 523.035 306.558 523.869 307.196 524.48C307.833 525.092 308.682 525.433 309.565 525.434C309.614 525.434 309.665 525.434 309.713 525.434H339.023C339.947 525.436 340.859 525.226 341.689 524.821C342.519 524.415 343.245 523.826 343.811 523.096C344.378 522.367 344.77 521.517 344.957 520.613C345.144 519.708 345.122 518.773 344.891 517.879C336.891 487.407 343.975 460.696 348.384 448.494C350.66 442 354.465 436.149 359.477 431.434C370.118 421.629 383.018 419.812 394.629 421.13C394.829 421.161 434.323 427.181 446.141 469.321C446.348 470.206 446.898 470.972 447.67 471.452C448.442 471.931 449.373 472.084 450.258 471.877C451.143 471.67 451.909 471.121 452.389 470.349C452.868 469.577 453.021 468.646 452.814 467.761C445.471 436.361 424.671 418.948 408.514 409.869C398.097 403.949 386.765 399.809 374.985 397.619C360.163 395.251 349.019 390.367 341.553 382.967C336.065 372.267 335.906 360.246 342.006 354.467C348.274 348.523 357.856 351.987 357.856 351.987C358.595 356.868 359.997 361.625 362.023 366.127C363.799 370.903 366.51 375.276 369.998 378.99V378.99C379.679 389.39 392.798 392.799 394.477 393.199C425.771 402.92 446.982 422.721 457.524 452.054C462.328 465.468 464.542 479.671 464.048 493.911C464.04 494.001 464.037 494.091 464.037 494.182V522.018C464.03 522.473 464.113 522.925 464.281 523.347C464.45 523.77 464.701 524.154 465.02 524.479C465.339 524.803 465.719 525.061 466.139 525.237C466.559 525.413 467.009 525.503 467.464 525.503C467.919 525.503 468.369 525.413 468.789 525.237C469.208 525.061 469.589 524.803 469.908 524.479C470.227 524.154 470.478 523.77 470.647 523.347C470.815 522.925 470.898 522.473 470.89 522.018V494.298C470.93 493.73 471.046 491.773 471.015 488.76L472.203 436.399C472.503 435.208 472.796 434.01 473.116 432.827C482.153 399.449 475.016 356.49 475.016 356.49C493.304 391.239 487.161 422.99 483.393 442.878C482.028 450.083 480.467 457.293 480.467 464.703V522.003C480.46 522.458 480.543 522.91 480.711 523.332C480.88 523.755 481.131 524.139 481.45 524.464C481.769 524.788 482.149 525.046 482.569 525.222C482.989 525.398 483.439 525.488 483.894 525.488C484.349 525.488 484.799 525.398 485.219 525.222C485.638 525.046 486.019 524.788 486.338 524.464C486.657 524.139 486.908 523.755 487.077 523.332C487.245 522.91 487.328 522.458 487.32 522.003V464.703C487.316 457.943 488.218 451.212 490.001 444.692C492.549 435.411 492.984 420.092 493.501 403.571C502.375 411.646 513.391 416.989 525.226 418.956C524.07 423.435 523.463 428.038 523.419 432.664C523.407 433.573 523.755 434.449 524.388 435.101C525.022 435.753 525.888 436.126 526.796 436.14H526.846C527.747 436.14 528.61 435.785 529.252 435.154C529.893 434.522 530.259 433.663 530.272 432.763C530.408 423.373 532.863 417.525 532.914 417.405C532.921 417.389 532.923 417.373 532.93 417.357C532.937 417.341 532.951 417.318 532.959 417.297C533.655 415.463 534.79 413.828 536.264 412.536C537.439 411.525 538.82 410.784 540.312 410.365C541.803 409.945 543.368 409.858 544.897 410.108C546.598 410.367 548.222 410.989 549.66 411.933C551.098 412.877 552.315 414.12 553.229 415.577C554.326 417.349 555.129 419.285 555.609 421.313C547.035 436.013 545.803 465.554 546.409 488.937V488.943C546.409 489.132 546.419 489.319 546.424 489.507C546.481 492.96 546.251 511.358 535.324 520.768C534.907 521.112 534.605 521.577 534.461 522.099C534.316 522.62 534.336 523.174 534.518 523.684C534.699 524.194 535.033 524.636 535.475 524.949C535.917 525.262 536.444 525.432 536.985 525.435H551.944H568.593C568.654 525.435 568.715 525.435 568.776 525.435C569.653 525.434 570.497 525.097 571.133 524.493C571.769 523.889 572.149 523.064 572.195 522.188C573.486 497.688 571.995 472.775 570.395 455.361H574.745C576.181 457.611 578.292 459.348 580.776 460.323C580.89 495.459 580.713 521.723 580.711 521.985C580.706 522.893 581.06 523.766 581.698 524.413C582.335 525.06 583.203 525.427 584.111 525.435H584.135C585.04 525.435 585.907 525.077 586.549 524.441C587.191 523.804 587.555 522.939 587.561 522.035C587.561 521.845 587.653 508.461 587.661 488.07L600.337 481.52C600.205 498.037 599.968 511.578 599.625 521.897C599.61 522.347 599.684 522.795 599.842 523.216C600.001 523.638 600.24 524.024 600.548 524.352C600.855 524.681 601.224 524.946 601.634 525.132C602.044 525.318 602.487 525.421 602.936 525.436H603.051C603.94 525.435 604.794 525.089 605.432 524.471C606.071 523.853 606.445 523.011 606.474 522.123C606.964 507.368 607.242 486.123 607.301 458.998C609.608 457.628 611.519 455.683 612.847 453.353C614.176 451.023 614.876 448.387 614.879 445.705V426.878C614.876 424.18 614.168 421.529 612.825 419.189C611.482 416.849 609.55 414.901 607.222 413.537C607.012 371.077 606.497 330.49 606.205 309.962C606.144 303.961 607.182 298 609.267 292.373C615.041 275.972 619.3 259.078 621.993 241.901C622.112 241.088 621.935 240.26 621.493 239.567C611.561 224.003 589.493 209.201 588.555 208.579C587.913 208.151 587.146 207.953 586.377 208.016C585.609 208.078 584.884 208.398 584.319 208.924C563.081 228.724 558.405 259.789 558.219 261.101C558.101 261.921 558.284 262.756 558.734 263.451C565.382 273.719 577.19 282.11 582.38 285.492L580.763 289.36C578.343 295.182 577.268 301.475 577.617 307.771C579.003 332.339 579.954 367.53 580.445 412.382C577.626 413.589 575.342 415.78 574.018 418.546H561.968C561.303 416.212 560.314 413.982 559.031 411.922C557.592 409.632 555.677 407.679 553.414 406.196C551.152 404.713 548.597 403.736 545.922 403.331C543.42 402.943 540.864 403.1 538.427 403.79C535.991 404.481 533.733 405.688 531.805 407.331C530.15 408.757 528.765 410.468 527.715 412.384C514.598 410.529 502.579 404.033 493.842 394.074C493.72 393.938 493.586 393.813 493.442 393.699C492.632 376.126 487.808 358.286 474.63 345.699C474.573 344.999 474.53 344.309 474.459 343.591C474.142 340.103 473.286 336.686 471.922 333.46C469.504 327.853 466.496 325.348 463.773 324.344C463.328 317.37 462.369 310.437 460.905 303.604C494.097 308.297 515.332 300.427 527.689 292.404C543.032 282.45 548.445 270.258 548.668 269.743C548.88 269.254 548.975 268.723 548.946 268.191C548.917 267.66 548.764 267.142 548.5 266.68C548.236 266.218 547.867 265.823 547.424 265.528C546.981 265.233 546.475 265.045 545.946 264.98C518.773 261.615 488.385 261.833 463.329 263.071C462.355 255.168 459.768 247.549 455.729 240.687C451.69 233.825 446.285 227.866 439.848 223.178C428.329 214.553 415.134 210.392 406.093 208.421C402.549 207.66 398.86 207.935 395.468 209.214C392.076 210.493 389.124 212.721 386.964 215.633C375.37 231.238 366.281 235.448 360.698 236.233C355.364 236.981 352.407 234.773 352.326 234.712C351.797 234.278 351.149 234.014 350.467 233.951C349.785 233.889 349.101 234.033 348.501 234.364C347.902 234.694 347.415 235.197 347.104 235.807C346.793 236.416 346.671 237.105 346.755 237.785C347.047 240.203 347.53 242.595 348.201 244.937C349.138 248.201 350.827 251.2 353.133 253.694C355.438 256.187 358.296 258.106 361.477 259.295C364.713 260.537 368.194 261.004 371.642 260.659C375.09 260.314 378.41 259.166 381.334 257.308C384.214 255.496 386.693 254.108 388.655 253.083L387.662 270.669C379.409 271.969 371.952 273.348 365.614 274.757C329.892 282.696 314.852 278.213 314.726 278.174C314.023 277.944 313.263 277.948 312.562 278.185C311.861 278.422 311.255 278.881 310.836 279.491C310.417 280.101 310.207 280.831 310.237 281.571C310.267 282.311 310.536 283.021 311.003 283.595C324.947 300.708 342.089 305.988 357.938 305.988C365.406 305.922 372.834 304.877 380.029 302.878C379.49 304.412 379.076 305.987 378.793 307.589C367.153 309.589 343.782 316.112 330.593 336.881C327.702 341.323 325.733 346.301 324.802 351.519C323.872 356.736 323.999 362.088 325.176 367.256C326.316 371.958 328.232 376.437 330.847 380.508C327.97 396.861 323.771 412.955 318.29 428.629C304.061 469.128 306.052 520.007 306.144 522.153ZM587.03 215.863C592.667 219.883 607.397 230.974 615.021 242.191C614.152 247.602 610.375 269.366 602.837 290.024C600.466 296.434 599.288 303.224 599.361 310.059C599.647 330.231 600.151 369.783 600.361 411.437C600.039 411.417 599.719 411.388 599.391 411.388H587.289C586.789 366.869 585.941 331.882 584.459 307.388C584.075 300.827 585.697 294.305 589.109 288.688C593.223 281.6 602.44 264.343 601.567 248.861C601.38 245.147 600.174 241.557 598.081 238.484C597.229 237.226 596.084 236.194 594.744 235.478C593.404 234.761 591.91 234.381 590.391 234.37C588.871 234.359 587.372 234.718 586.022 235.416C584.672 236.114 583.512 237.129 582.642 238.375C579.141 243.53 576.766 249.366 575.67 255.501C575.477 256.389 575.631 257.317 576.1 258.096C576.569 258.874 577.318 259.444 578.193 259.688C578.645 259.796 579.114 259.811 579.572 259.733C580.03 259.655 580.467 259.484 580.857 259.231C581.247 258.979 581.582 258.65 581.84 258.264C582.099 257.879 582.277 257.444 582.363 256.988C583.08 252.754 584.467 248.661 586.471 244.864C586.82 244.221 587.34 243.688 587.974 243.322C588.607 242.956 589.329 242.773 590.06 242.792C590.791 242.811 591.503 243.031 592.116 243.429C592.729 243.827 593.221 244.387 593.536 245.047C594.187 246.312 594.588 247.69 594.718 249.107C594.994 252.945 594.742 256.802 593.967 260.571C592.896 264.153 590.129 268.707 582.993 269.376C579.879 269.68 576.738 269.208 573.85 268.003C570.963 266.798 568.418 264.897 566.444 262.469C566.022 261.923 565.613 261.369 565.224 260.815C566.275 255.171 571.418 231.863 587.03 215.863ZM579.623 423.963C579.625 422.446 580.228 420.992 581.301 419.919C582.373 418.847 583.828 418.243 585.344 418.242H599.396C601.686 418.244 603.882 419.155 605.501 420.774C607.12 422.393 608.031 424.589 608.033 426.879V445.704C608.031 447.994 607.12 450.189 605.501 451.809C603.882 453.428 601.686 454.338 599.396 454.341H585.344C583.828 454.339 582.373 453.736 581.301 452.663C580.228 451.591 579.625 450.137 579.623 448.62V423.963ZM561.178 425.401H572.77V448.508H554.818C556.034 439.259 558.037 431.071 561.178 425.4V425.401ZM387.778 320.401C385.566 318.595 385.102 314.94 385.111 313.642C385.01 309.091 386.241 304.61 388.651 300.749C390.432 300.37 392.224 300.035 394.024 299.729C396.292 302.699 398.117 305.983 399.441 309.478C400.05 311.117 401.126 312.541 402.535 313.576C403.944 314.611 405.625 315.212 407.37 315.303C407.559 315.315 407.747 315.32 407.935 315.32C409.573 315.329 411.182 314.884 412.583 314.035C413.983 313.186 415.122 311.966 415.872 310.51C417.958 306.549 419.388 302.276 420.106 297.858C429.411 298.072 438.673 299.198 447.758 301.219C449.741 301.66 451.676 302.046 453.586 302.405C453.923 303.748 454.245 305.116 454.538 306.535C453.139 306.941 451.761 307.418 450.409 307.964C449.571 308.316 448.908 308.986 448.564 309.828C448.221 310.669 448.225 311.613 448.577 312.451C448.929 313.289 449.6 313.953 450.441 314.296C451.283 314.64 452.226 314.635 453.064 314.283C453.08 314.276 454.14 313.84 455.726 313.339C456.212 316.652 456.593 320.127 456.868 323.764H451.418C448.605 323.75 445.827 324.392 443.304 325.637C440.781 326.883 438.583 328.698 436.882 330.94C433.87 334.99 428.25 339.817 418.582 339.817C405.431 339.817 399.046 323.764 398.928 323.461C398.681 322.668 398.135 322.002 397.406 321.604C396.677 321.206 395.821 321.107 395.02 321.329C391.798 322.008 389.359 321.697 387.777 320.404L387.778 320.401ZM465.635 336.18C466.718 338.756 467.396 341.484 467.644 344.267C471.23 380.802 456.044 395.155 451.464 398.607C423.892 387.865 413.546 363.745 413.446 363.507C413.195 362.9 412.775 362.377 412.235 362.002C411.695 361.627 411.059 361.416 410.402 361.392H410.279C409.643 361.392 409.019 361.569 408.478 361.903C407.936 362.238 407.499 362.717 407.214 363.286C406.313 365.011 404.921 366.43 403.214 367.366C399.463 364.296 396.286 360.585 393.828 356.407C392.149 353.567 391.065 350.414 390.645 347.141C390.224 343.869 390.475 340.544 391.382 337.372C392.098 334.906 393.244 332.587 394.767 330.52C398.234 336.65 405.85 346.673 418.588 346.673C431.102 346.673 438.437 340.344 442.388 335.034C443.449 333.649 444.816 332.529 446.383 331.762C447.95 330.996 449.674 330.605 451.418 330.619H460.487C462.877 330.619 464.737 334.104 465.634 336.183L465.635 336.18ZM406.849 274.88L422.518 272.619C423.006 272.548 423.461 272.333 423.825 272.001C424.189 271.669 424.445 271.235 424.56 270.756C424.675 270.277 424.644 269.775 424.47 269.314C424.297 268.853 423.989 268.454 423.586 268.17C420.588 266.252 417.152 265.127 413.599 264.9C411.853 264.717 410.23 263.917 409.021 262.643C407.813 261.369 407.1 259.705 407.01 257.952L405.37 228.819C407.292 215.365 423.3 221.306 423.464 221.368C438.135 228.184 453.072 240.663 456.464 263.452C452.076 263.709 447.885 263.992 443.964 264.285C443.069 264.366 442.241 264.796 441.659 265.483C441.078 266.169 440.79 267.057 440.857 267.954C440.924 268.851 441.341 269.686 442.018 270.278C442.696 270.87 443.578 271.172 444.476 271.119C470.195 269.194 507.076 267.719 539.951 271.198C515.013 293.023 486.21 287.971 486.21 287.971C486.21 287.971 452.066 281.043 416.684 282.281C391.684 283.155 386.253 279.953 385.217 277.999C391.88 276.904 399.152 275.853 406.848 274.882L406.849 274.88Z" fill="black"/>
<path d="M451.339 478.654C450.434 478.739 449.6 479.179 449.02 479.879C448.44 480.579 448.162 481.48 448.246 482.385C448.306 483.014 448.359 483.648 448.407 484.285C448.472 485.146 448.86 485.951 449.493 486.539C450.125 487.126 450.957 487.453 451.82 487.454C451.906 487.454 451.994 487.454 452.081 487.444C452.53 487.41 452.968 487.288 453.37 487.085C453.771 486.882 454.129 486.602 454.423 486.261C454.716 485.92 454.939 485.524 455.08 485.096C455.22 484.669 455.275 484.218 455.241 483.769C455.189 483.089 455.132 482.414 455.07 481.745C454.983 480.841 454.542 480.009 453.843 479.429C453.144 478.85 452.244 478.571 451.339 478.654V478.654Z" fill="black"/>
<path d="M432.657 314.534C433.927 314.665 435.187 314.887 436.426 315.199C437.301 315.439 438.236 315.323 439.025 314.874C439.815 314.426 440.394 313.683 440.636 312.808C440.878 311.933 440.763 310.997 440.316 310.207C439.869 309.417 439.127 308.836 438.253 308.593C436.627 308.175 434.973 307.88 433.304 307.711C432.853 307.663 432.397 307.705 431.963 307.835C431.529 307.965 431.125 308.179 430.774 308.466C430.423 308.753 430.133 309.106 429.92 309.506C429.706 309.906 429.575 310.344 429.532 310.795C429.489 311.246 429.536 311.702 429.671 312.134C429.805 312.567 430.024 312.969 430.314 313.317C430.605 313.664 430.961 313.951 431.363 314.16C431.766 314.369 432.205 314.496 432.657 314.534V314.534Z" fill="black"/>
</g>
</svg>
