<svg viewBox="0 0 137 20" fill="none" xmlns="http://www.w3.org/2000/svg" class="logo" data-v-8acb5cf0=""><path d="M32 4.875H34.9319V15.1562H40.3635V17.7812H32V4.875ZM40.472 13.3516C40.472 12.6467 40.6036 12.0087 40.8667 11.4375C41.1298 10.8663 41.4869 10.3802 41.938 9.97916C42.4016 9.56597 42.9403 9.25 43.5543 9.03125C44.1808 8.8125 44.8448 8.70313 45.5465 8.70313C46.2481 8.70313 46.9059 8.8125 47.5199 9.03125C48.1463 9.25 48.6851 9.56597 49.1362 9.97916C49.5998 10.3802 49.9631 10.8663 50.2263 11.4375C50.4894 12.0087 50.6209 12.6467 50.6209 13.3516C50.6209 14.0564 50.4894 14.6944 50.2263 15.2656C49.9631 15.8368 49.5998 16.329 49.1362 16.7422C48.6851 17.1432 48.1463 17.4531 47.5199 17.6719C46.9059 17.8906 46.2481 18 45.5465 18C44.8448 18 44.1808 17.8906 43.5543 17.6719C42.9403 17.4531 42.4016 17.1432 41.938 16.7422C41.4869 16.329 41.1298 15.8368 40.8667 15.2656C40.6036 14.6944 40.472 14.0564 40.472 13.3516ZM43.2912 13.3516C43.2912 14.02 43.4854 14.5608 43.8738 14.974C44.2747 15.3872 44.8323 15.5937 45.5465 15.5937C46.2607 15.5937 46.812 15.3872 47.2004 14.974C47.6013 14.5608 47.8018 14.02 47.8018 13.3516C47.8018 12.6832 47.6013 12.1424 47.2004 11.7292C46.812 11.316 46.2607 11.1094 45.5465 11.1094C44.8323 11.1094 44.2747 11.316 43.8738 11.7292C43.4854 12.1424 43.2912 12.6832 43.2912 13.3516ZM51.1287 13.3516C51.1287 12.6467 51.2603 12.0087 51.5234 11.4375C51.7865 10.8663 52.1436 10.3802 52.5946 9.97916C53.0582 9.56597 53.597 9.25 54.211 9.03125C54.8374 8.8125 55.5015 8.70313 56.2031 8.70313C56.9048 8.70313 57.5626 8.8125 58.1765 9.03125C58.803 9.25 59.3418 9.56597 59.7929 9.97916C60.2564 10.3802 60.6198 10.8663 60.8829 11.4375C61.146 12.0087 61.2776 12.6467 61.2776 13.3516C61.2776 14.0564 61.146 14.6944 60.8829 15.2656C60.6198 15.8368 60.2564 16.329 59.7929 16.7422C59.3418 17.1432 58.803 17.4531 58.1765 17.6719C57.5626 17.8906 56.9048 18 56.2031 18C55.5015 18 54.8374 17.8906 54.211 17.6719C53.597 17.4531 53.0582 17.1432 52.5946 16.7422C52.1436 16.329 51.7865 15.8368 51.5234 15.2656C51.2603 14.6944 51.1287 14.0564 51.1287 13.3516ZM53.9478 13.3516C53.9478 14.02 54.142 14.5608 54.5305 14.974C54.9314 15.3872 55.489 15.5937 56.2031 15.5937C56.9173 15.5937 57.4686 15.3872 57.857 14.974C58.258 14.5608 58.4585 14.02 58.4585 13.3516C58.4585 12.6832 58.258 12.1424 57.857 11.7292C57.4686 11.316 56.9173 11.1094 56.2031 11.1094C55.489 11.1094 54.9314 11.316 54.5305 11.7292C54.142 12.1424 53.9478 12.6832 53.9478 13.3516ZM68.3446 11.1094H65.8638V14.0625C65.8638 14.3056 65.8763 14.5304 65.9014 14.737C65.9264 14.9314 65.9828 15.1016 66.0705 15.2474C66.1582 15.3932 66.2898 15.5087 66.4652 15.5937C66.6531 15.6667 66.8975 15.7031 67.1982 15.7031C67.3485 15.7031 67.5427 15.691 67.7808 15.6667C68.0314 15.6302 68.2193 15.5573 68.3446 15.4479V17.7266C68.0314 17.8359 67.7056 17.9089 67.3673 17.9453C67.029 17.9818 66.697 18 66.3712 18C65.8951 18 65.4566 17.9514 65.0556 17.8542C64.6547 17.7569 64.3039 17.605 64.0031 17.3984C63.7024 17.1797 63.4644 16.9002 63.289 16.5599C63.1261 16.2196 63.0446 15.8064 63.0446 15.3203V11.1094H61.2404V8.92188H63.0446V6.29687H65.8638V8.92188H68.3446V11.1094ZM67.9291 4.875H71.1242L73.2479 13.151H73.2855L76.0671 4.875H78.7922L81.555 13.3698H81.5926L83.8291 4.875H86.7986L82.9082 17.7812H80.2958L77.3639 8.84896H77.3263L74.3944 17.7812H71.8759L67.9291 4.875ZM91.9777 16.6693H91.9401C91.6269 17.1432 91.2071 17.4835 90.6809 17.6901C90.1672 17.8967 89.6221 18 89.0458 18C88.6198 18 88.2063 17.9392 87.8053 17.8177C87.4169 17.7083 87.0724 17.5382 86.7717 17.3073C86.4709 17.0764 86.2329 16.7908 86.0575 16.4505C85.8821 16.1102 85.7944 15.7153 85.7944 15.2656C85.7944 14.7552 85.8883 14.3238 86.0763 13.9714C86.2767 13.6189 86.5399 13.3273 86.8656 13.0964C87.2039 12.8654 87.5861 12.6892 88.0121 12.5677C88.4381 12.434 88.8766 12.3368 89.3277 12.276C89.7913 12.2153 90.2486 12.1788 90.6997 12.1667C91.1633 12.1545 91.5893 12.1484 91.9777 12.1484C91.9777 11.6623 91.796 11.2795 91.4326 11C91.0818 10.7083 90.6621 10.5625 90.1734 10.5625C89.7098 10.5625 89.2838 10.6597 88.8954 10.8542C88.5195 11.0365 88.1812 11.2917 87.8805 11.6198L86.377 10.125C86.9032 9.65104 87.5172 9.29861 88.2188 9.06771C88.9205 8.82465 89.6472 8.70313 90.399 8.70313C91.2259 8.70313 91.9025 8.80642 92.4287 9.01302C92.9675 9.20747 93.3935 9.49913 93.7068 9.88802C94.0325 10.2769 94.2581 10.7569 94.3833 11.3281C94.5086 11.8871 94.5713 12.5373 94.5713 13.2786V17.7812H91.9777V16.6693ZM91.2823 13.8984C91.0693 13.8984 90.7999 13.9106 90.4741 13.9349C90.1609 13.947 89.8539 13.9957 89.5532 14.0807C89.265 14.1658 89.0144 14.2934 88.8014 14.4635C88.601 14.6337 88.5007 14.8707 88.5007 15.1745C88.5007 15.5026 88.6448 15.7457 88.933 15.9036C89.2212 16.0616 89.5219 16.1406 89.8351 16.1406C90.1108 16.1406 90.3739 16.1042 90.6245 16.0312C90.8876 15.9583 91.1194 15.855 91.3199 15.7214C91.5204 15.5877 91.677 15.4175 91.7897 15.2109C91.915 15.0043 91.9777 14.7613 91.9777 14.4818V13.8984H91.2823ZM101.746 11.1094H99.2655V14.0625C99.2655 14.3056 99.278 14.5304 99.3031 14.737C99.3281 14.9314 99.3845 15.1016 99.4722 15.2474C99.5599 15.3932 99.6915 15.5087 99.8669 15.5937C100.055 15.6667 100.299 15.7031 100.6 15.7031C100.75 15.7031 100.944 15.691 101.182 15.6667C101.433 15.6302 101.621 15.5573 101.746 15.4479V17.7266C101.433 17.8359 101.107 17.9089 100.769 17.9453C100.431 17.9818 100.099 18 99.7729 18C99.2968 18 98.8583 17.9514 98.4573 17.8542C98.0564 17.7569 97.7055 17.605 97.4048 17.3984C97.1041 17.1797 96.8661 16.9002 96.6907 16.5599C96.5278 16.2196 96.4463 15.8064 96.4463 15.3203V11.1094H94.6421V8.92188H96.4463V6.29687H99.2655V8.92188H101.746V11.1094ZM108.548 11.7839C108.41 11.5894 108.216 11.4314 107.965 11.3099C107.715 11.1762 107.445 11.1094 107.157 11.1094C106.443 11.1094 105.885 11.316 105.485 11.7292C105.096 12.1424 104.902 12.6832 104.902 13.3516C104.902 14.02 105.096 14.5608 105.485 14.974C105.885 15.3872 106.443 15.5937 107.157 15.5937C107.47 15.5937 107.74 15.5269 107.965 15.3932C108.191 15.2595 108.385 15.1016 108.548 14.9193L110.409 16.8151C109.97 17.2526 109.45 17.5625 108.849 17.7448C108.26 17.9149 107.696 18 107.157 18C106.456 18 105.791 17.8906 105.165 17.6719C104.551 17.4531 104.012 17.1432 103.549 16.7422C103.098 16.329 102.741 15.8368 102.477 15.2656C102.214 14.6944 102.083 14.0564 102.083 13.3516C102.083 12.6467 102.214 12.0087 102.477 11.4375C102.741 10.8663 103.098 10.3802 103.549 9.97916C104.012 9.56597 104.551 9.25 105.165 9.03125C105.791 8.8125 106.456 8.70313 107.157 8.70313C107.696 8.70313 108.26 8.79427 108.849 8.97656C109.45 9.1467 109.97 9.45052 110.409 9.88802L108.548 11.7839ZM113.436 4V10.125H113.474C113.537 9.95486 113.643 9.78472 113.793 9.61459C113.944 9.44445 114.125 9.29254 114.338 9.15886C114.551 9.02518 114.802 8.9158 115.09 8.83073C115.378 8.74566 115.692 8.70313 116.03 8.70313C116.744 8.70313 117.321 8.8125 117.759 9.03125C118.198 9.23785 118.536 9.52952 118.774 9.90625C119.025 10.283 119.194 10.7266 119.281 11.237C119.369 11.7474 119.413 12.3003 119.413 12.8958V17.7812H116.594V13.4427C116.594 13.1875 116.581 12.9262 116.556 12.6589C116.544 12.3793 116.487 12.1241 116.387 11.8932C116.299 11.6623 116.155 11.474 115.955 11.3281C115.767 11.1823 115.491 11.1094 115.128 11.1094C114.764 11.1094 114.47 11.1762 114.245 11.3099C114.019 11.4314 113.844 11.6016 113.718 11.8203C113.606 12.0269 113.53 12.2639 113.493 12.5312C113.455 12.7986 113.436 13.0781 113.436 13.3698V17.7812H110.617V4H113.436ZM129.24 16.25C128.789 16.809 128.219 17.2405 127.53 17.5443C126.84 17.8481 126.126 18 125.387 18C124.685 18 124.021 17.8906 123.395 17.6719C122.781 17.4531 122.242 17.1432 121.779 16.7422C121.327 16.329 120.97 15.8368 120.707 15.2656C120.444 14.6944 120.313 14.0564 120.313 13.3516C120.313 12.6467 120.444 12.0087 120.707 11.4375C120.97 10.8663 121.327 10.3802 121.779 9.97916C122.242 9.56597 122.781 9.25 123.395 9.03125C124.021 8.8125 124.685 8.70313 125.387 8.70313C126.039 8.70313 126.627 8.8125 127.154 9.03125C127.692 9.25 128.144 9.56597 128.507 9.97916C128.883 10.3802 129.171 10.8663 129.371 11.4375C129.572 12.0087 129.672 12.6467 129.672 13.3516V14.2083H123.132C123.244 14.7309 123.489 15.1502 123.865 15.4661C124.241 15.77 124.704 15.9219 125.255 15.9219C125.719 15.9219 126.107 15.8247 126.421 15.6302C126.746 15.4236 127.028 15.1623 127.266 14.8464L129.24 16.25ZM126.853 12.349C126.865 11.8871 126.709 11.4922 126.383 11.1641C126.057 10.8359 125.638 10.6719 125.124 10.6719C124.811 10.6719 124.535 10.7205 124.297 10.8177C124.059 10.9149 123.852 11.0425 123.677 11.2005C123.514 11.3464 123.382 11.5226 123.282 11.7292C123.194 11.9236 123.144 12.1302 123.132 12.349H126.853ZM130.572 8.92188H133.392V10.3437H133.429C133.73 9.79688 134.087 9.38976 134.5 9.1224C134.914 8.84288 135.434 8.70313 136.06 8.70313C136.223 8.70313 136.386 8.7092 136.549 8.72136C136.712 8.73351 136.862 8.75781 137 8.79427V11.2917C136.8 11.2309 136.599 11.1884 136.399 11.1641C136.211 11.1276 136.01 11.1094 135.797 11.1094C135.258 11.1094 134.832 11.1823 134.519 11.3281C134.206 11.474 133.962 11.6806 133.786 11.9479C133.623 12.2031 133.517 12.513 133.467 12.8776C133.417 13.2422 133.392 13.6432 133.392 14.0807V17.7812H130.572V8.92188Z" fill="#E3DCD4" data-v-8acb5cf0=""></path> <path d="M20 20C20 8.95433 11.0457 0 0 0V20H20Z" fill="#E3DCD4" data-v-8acb5cf0=""></path></svg>