<svg width="725" height="491" viewBox="0 0 725 491" fill="none" xmlns="http://www.w3.org/2000/svg">
<path d="M0 10C0 4.47716 4.47715 0 10 0H715C720.523 0 725 4.47715 725 10V434.311C444.025 509.747 285.294 510.046 0 434.311V10Z" fill="#D1FCFF"/>
<mask id="mask0" style="mask-type:alpha" maskUnits="userSpaceOnUse" x="0" y="0" width="725" height="491">
<path d="M0 20C0 8.9543 8.95431 0 20 0H705C716.046 0 725 8.95431 725 20V434.311C444.025 509.747 285.294 510.046 0 434.311V20Z" fill="#65AED8"/>
</mask>
<g mask="url(#mask0)">
<path d="M217.627 299.159C218.053 299.608 218.593 299.933 219.189 300.099L315.953 327.165C308.449 330.28 301.775 335.102 296.46 341.246C290.997 347.476 286.784 354.698 284.051 362.518C283.913 362.962 283.868 363.429 283.916 363.891C283.965 364.353 284.107 364.8 284.334 365.206C284.561 365.611 284.867 365.966 285.236 366.249C285.604 366.532 286.026 366.737 286.476 366.852C288.544 367.38 290.524 367.995 292.433 368.666L245.556 410.284C241.686 410.388 237.829 410.773 234.016 411.435C233.518 411.532 233.049 411.737 232.641 412.037C232.232 412.337 231.896 412.724 231.655 413.169C231.414 413.615 231.275 414.108 231.247 414.614C231.22 415.12 231.305 415.626 231.497 416.094C237.071 429.906 245.085 442.602 255.157 453.575C252.203 456.934 249.045 460.107 245.699 463.075C219.058 486.647 217.137 512.681 217.068 513.775C217.038 514.243 217.105 514.711 217.264 515.151C217.422 515.591 217.669 515.995 217.99 516.336C218.31 516.677 218.697 516.949 219.127 517.134C219.557 517.32 220.02 517.416 220.488 517.415H324.347C324.359 517.415 324.371 517.415 324.384 517.415C324.397 517.415 324.408 517.415 324.421 517.415H475.289C475.759 517.415 476.223 517.319 476.654 517.132C477.085 516.944 477.473 516.671 477.794 516.327C478.114 515.984 478.361 515.578 478.518 515.135C478.675 514.693 478.74 514.222 478.708 513.753C477.384 498.098 475.007 482.55 471.595 467.214C476.427 470.62 481.682 473.382 487.228 475.431C487.695 475.607 488.195 475.679 488.693 475.641C489.191 475.603 489.675 475.457 490.11 475.213C490.546 474.968 490.923 474.632 491.214 474.226C491.506 473.821 491.705 473.357 491.799 472.866C492.107 471.256 499.14 433.375 493.832 377.213L502.069 380.246C504.154 381.013 506.393 381.266 508.596 380.982C510.799 380.699 512.901 379.887 514.724 378.617C516.547 377.347 518.035 375.656 519.064 373.687C520.093 371.718 520.632 369.53 520.634 367.308C520.633 364.723 519.826 362.201 518.325 360.095C516.825 357.989 514.705 356.403 512.262 355.557L497.431 350.43C497.266 348.387 496.645 346.406 495.613 344.633C494.582 342.861 493.166 341.343 491.471 340.189C484.058 335.033 475.68 331.426 466.84 329.584C465.28 329.27 463.68 329.209 462.101 329.404L465.034 310.313C465.155 309.527 464.999 308.723 464.592 308.04C464.185 307.356 463.553 306.836 462.804 306.567L459.744 305.467C456.75 304.403 453.463 304.512 450.547 305.774C447.63 307.036 445.3 309.356 444.027 312.267L438.16 325.76L408.702 317.465C409.682 314.669 410.301 311.76 410.546 308.807C411.161 301.42 412.536 283.426 412.71 268.385C417.133 268.849 421.587 268.96 426.028 268.717C426.511 268.692 426.983 268.565 427.414 268.344C427.844 268.123 428.223 267.813 428.525 267.436C428.828 267.058 429.047 266.62 429.168 266.152C429.289 265.683 429.309 265.194 429.228 264.717C428.57 261.499 427.47 258.387 425.959 255.47C430.894 255.322 437.495 253.694 444.154 247.775C444.624 247.357 444.97 246.816 445.153 246.214C445.336 245.611 445.35 244.97 445.192 244.36C445.035 243.751 444.712 243.196 444.26 242.758C443.808 242.319 443.244 242.014 442.63 241.875C442.567 241.861 436.23 240.34 432.459 236.119C431.914 235.509 431.283 234.761 430.57 233.919C426.17 228.708 418.743 219.919 408.77 215.579C410.914 213.694 412.736 211.471 414.163 208.998C414.469 208.473 414.63 207.875 414.629 207.267C414.629 206.659 414.466 206.062 414.158 205.537C413.85 205.013 413.408 204.58 412.878 204.282C412.347 203.985 411.747 203.834 411.139 203.845C408.597 203.89 400.987 203.602 396.388 201.708C396.313 201.677 396.237 201.649 396.161 201.624C395.839 201.516 364.2 191.466 348.94 222.703C342.977 223.688 326.855 228.476 322.268 251.577C322.121 252.341 318.99 269.726 332.587 280.768C331.46 288.749 332.616 300.611 343.108 303.251C345.878 303.898 348.784 303.631 351.391 302.492V317.861L245.68 290.3L239.709 277L324.941 301C325.374 301.122 325.827 301.158 326.274 301.105C326.721 301.052 327.154 300.911 327.546 300.691C327.939 300.471 328.284 300.175 328.563 299.822C328.842 299.468 329.048 299.063 329.17 298.629C329.292 298.196 329.327 297.743 329.274 297.296C329.221 296.849 329.08 296.417 328.86 296.024C328.64 295.631 328.345 295.286 327.991 295.007C327.637 294.729 327.232 294.522 326.799 294.4L231.763 267.641C231.377 267.532 230.974 267.492 230.574 267.523C230.182 267.552 220.828 268.33 207.874 274.88C207.174 275.236 206.618 275.821 206.298 276.538C205.978 277.255 205.913 278.06 206.116 278.818C208.367 286.381 212.302 293.336 217.627 299.159ZM496.432 367.608L497.098 357.566L510.023 362.033C511.12 362.413 512.071 363.125 512.744 364.07C513.418 365.015 513.779 366.147 513.78 367.307C513.78 368.426 513.51 369.528 512.992 370.52C512.475 371.511 511.726 372.363 510.808 373.003C509.891 373.643 508.833 374.052 507.723 374.195C506.614 374.338 505.486 374.211 504.437 373.824L495.837 370.656C496.16 369.669 496.36 368.645 496.432 367.608ZM313.895 409.057C314.444 411.176 314.437 413.401 313.876 415.516C311.486 425.028 307.296 433.994 301.532 441.929C297.515 437.324 294.035 432.276 291.159 426.884C290.329 425.235 289.283 423.703 288.05 422.329L311.875 400.857C312.426 403.213 313.099 405.977 313.895 409.057ZM454.795 437.357C445.405 431.94 432.177 423.875 421.595 415.772C425.972 409.084 429.605 401.936 432.429 394.457C439.872 400.174 447.658 405.429 455.744 410.193C455.203 419.108 454.828 428.429 454.791 437.354L454.795 437.357ZM458.069 381.214C457.469 387.346 456.816 394.651 456.254 402.489C448.154 397.523 437.196 390.266 430.237 383.509C431.684 368.728 424.287 361.445 419.31 358.272C418.057 357.467 416.978 356.419 416.137 355.189L432.472 359.758L433.259 373.891C433.413 376.877 434.634 379.708 436.701 381.869C438.768 384.029 441.543 385.375 444.519 385.66L450.09 386.219C450.205 386.231 450.32 386.237 450.436 386.237C451.254 386.236 452.045 385.943 452.665 385.41C453.285 384.876 453.695 384.139 453.819 383.33L455.857 370.066C456.877 370.73 457.905 371.345 458.934 371.924L458.069 381.214ZM391.991 346.418C391.367 350.08 389.39 353.373 386.453 355.645C385.012 356.76 383.294 357.461 381.485 357.672C379.676 357.884 377.843 357.598 376.184 356.845C370.857 354.503 366.251 350.784 362.839 346.07C361.652 344.446 360.683 342.673 359.954 340.798C359.737 338.965 359.256 337.172 358.526 335.476C358.343 334.269 358.25 333.05 358.248 331.828V316.184C358.804 316.684 359.388 317.151 359.997 317.584C367.376 322.696 375.476 326.678 384.031 329.398C384.104 338.914 389.043 344.146 391.991 346.418ZM358.375 351.48C362.365 356.536 367.535 360.534 373.432 363.124C375.62 364.087 377.984 364.586 380.375 364.589C384.121 364.598 387.76 363.341 390.702 361.022C394.776 357.844 397.579 353.314 398.607 348.25C400.807 348.384 402.933 349.096 404.769 350.316C406.412 351.595 407.68 353.294 408.439 355.232C409.843 358.855 412.357 361.94 415.621 364.047C417.453 365.207 419.041 366.713 420.297 368.48C415.795 382.045 407.025 393.788 395.297 401.955C393.566 403.119 391.563 403.814 389.483 403.972C387.403 404.129 385.318 403.745 383.432 402.855C381.015 401.719 378.661 400.478 376.432 399.168C376.044 398.94 375.615 398.791 375.169 398.729C374.724 398.666 374.27 398.692 373.835 398.805C372.955 399.033 372.202 399.602 371.741 400.385C371.281 401.168 371.15 402.102 371.378 402.982C371.606 403.862 372.174 404.615 372.958 405.075C375.364 406.491 377.907 407.831 380.513 409.057C383.479 410.449 386.755 411.048 390.021 410.796C393.287 410.544 396.433 409.45 399.15 407.619C409.686 400.377 418.105 390.462 423.544 378.891C423.617 382.116 423.247 385.336 422.444 388.46C422.383 388.715 416.062 414.113 392.461 427.11C391.039 427.891 389.457 428.334 387.837 428.407C386.217 428.48 384.602 428.18 383.116 427.53C364.923 419.494 349.893 406.969 339.648 391.312L335.581 384.581C342.214 379.384 347.793 372.965 352.016 365.672C358.224 373.506 365.658 380.284 374.029 385.745C377.205 387.754 380.885 388.82 384.643 388.819C387.326 388.826 389.982 388.281 392.445 387.218C394.909 386.154 397.127 384.595 398.962 382.637C401.869 379.574 404.301 376.093 406.177 372.308C406.382 371.903 406.504 371.46 406.536 371.007C406.568 370.553 406.51 370.098 406.364 369.667C406.218 369.237 405.989 368.839 405.688 368.498C405.387 368.157 405.022 367.879 404.613 367.681C404.204 367.483 403.76 367.367 403.306 367.342C402.852 367.317 402.397 367.383 401.969 367.535C401.541 367.688 401.147 367.924 400.811 368.23C400.475 368.536 400.203 368.905 400.011 369.317C398.435 372.484 396.393 375.397 393.954 377.958C391.896 380.129 389.147 381.515 386.178 381.879C383.21 382.242 380.207 381.56 377.687 379.95C366.396 372.823 358.306 362.736 355.487 358.939C356.58 356.506 357.544 354.016 358.375 351.48ZM342.216 330.708C344.746 331.015 347.123 332.086 349.029 333.778C349.32 334.31 352.868 341.203 346.66 349.785C343.474 353.929 339.849 357.715 335.847 361.076C332.873 363.69 329.215 365.401 325.303 366.008C321.391 366.615 317.387 366.093 313.761 364.503C306.418 361.217 299.799 354.777 304.902 342.243C312.947 334.698 324.936 328.635 342.216 330.708ZM287.386 382.308C297.734 383.494 306.453 386.108 313.086 390.536L282.599 418.016C273.764 413.133 264.052 411.141 255.641 410.494L287.386 382.308ZM239.594 417.585C244.278 417.109 248.993 417.006 253.694 417.275C254.639 417.438 267.716 419.869 273.861 430.4C280.093 441.045 287.671 450.842 296.408 459.549C292.349 462.169 288.744 465.431 285.733 469.208C278.087 465.033 254.182 449.908 239.594 417.585ZM224.456 510.57C225.951 503.01 231.356 484.922 250.241 468.212C250.914 467.612 251.575 467.005 252.234 466.392V466.4C252.234 466.4 261.177 476.115 270.814 481.616C266.793 488.907 263.806 496.722 261.94 504.836C261.551 506.471 260.621 507.927 259.301 508.968C257.982 510.009 256.349 510.573 254.669 510.57H224.456ZM321.316 482.497L321 492.256C321 492.274 321 492.292 321 492.31C321 492.328 320.994 492.347 320.994 492.366V508.036L320.963 510.57H317.9C313.217 510.565 308.727 508.703 305.416 505.392C302.105 502.081 300.242 497.591 300.236 492.908C300.234 487.252 298.224 481.78 294.565 477.467L291.138 473.431C295.988 467.574 302.357 463.164 309.547 460.686L314.424 465.452C316.635 467.623 318.386 470.218 319.57 473.082C320.754 475.946 321.348 479.02 321.316 482.118V482.497ZM408.372 510.57H390.185V495.793H408.368L408.372 510.57ZM408.372 461.515V488.94H328.085L328.163 482.669L329.389 444.838C330.12 422.251 341.679 416.217 341.679 416.217L341.671 416.205C355.978 432.052 370.51 439.479 378.598 442.663C382.75 444.314 387.384 444.269 391.505 442.54C399.01 439.257 405.781 434.502 411.416 428.555C411.148 430.855 410.89 432.833 410.666 434.171C409.147 443.207 408.379 452.353 408.368 461.515H408.372ZM459.478 510.57C457.869 510.565 456.325 509.943 455.161 508.832C453.998 507.721 453.305 506.207 453.226 504.6C452.347 488.988 450.16 473.476 446.689 458.228L464.616 467.408C467.829 481.637 470.148 496.053 471.56 510.571L459.478 510.57ZM467.492 454.452C463.678 450.081 461.597 444.464 461.641 438.662C461.647 420.887 463.08 401.262 464.441 386.562C465.835 387.302 467.702 388.28 469.868 389.38C471.024 390.002 479.593 395.435 479.401 420.013C479.401 420.013 479.625 451.746 476.888 462.559C473.418 460.274 470.258 457.549 467.488 454.452H467.492ZM459.416 337.502C460.714 336.606 462.256 336.127 463.834 336.129C464.382 336.13 464.929 336.186 465.466 336.295C473.396 337.949 480.91 341.187 487.558 345.815C488.551 346.478 489.355 347.388 489.889 348.456C490.423 349.523 490.669 350.712 490.603 351.904L489.591 367.152C489.533 367.957 489.307 368.741 488.927 369.453C488.548 370.165 488.022 370.789 487.386 371.285C486.658 371.861 485.819 372.279 484.922 372.514C484.025 372.749 483.089 372.795 482.173 372.65C473.524 371.41 465.275 368.205 458.058 363.281C457.346 362.789 456.755 362.143 456.329 361.39C455.902 360.637 455.652 359.797 455.597 358.933C455.259 353.333 455.528 347.713 456.397 342.17C456.557 341.228 456.908 340.329 457.427 339.526C457.946 338.724 458.623 338.035 459.416 337.502ZM450.316 314.999C452.532 310.356 457.835 312.062 457.835 312.062C457.835 312.062 450.584 334.583 449.235 344.455C449.224 344.537 449.213 344.635 449.202 344.723L438.369 342.466L450.316 314.999ZM425.556 329.329L420.022 336.366L397.456 331.454C399.29 330.896 400.938 329.848 402.222 328.423C403.021 327.535 403.772 326.604 404.47 325.633C404.91 325.021 405.329 324.391 405.726 323.745L425.556 329.329ZM345.016 296.665C344.943 296.642 344.869 296.621 344.795 296.602C337.312 294.731 339.295 282.102 339.629 280.231C340.062 279.217 340.685 278.294 341.466 277.514C342.109 276.882 342.884 276.4 343.735 276.101C344.586 275.802 345.492 275.694 346.39 275.785C347.242 275.856 348.069 276.114 348.811 276.541C349.552 276.968 350.19 277.554 350.68 278.255C351.471 279.46 351.885 280.874 351.868 282.315C351.878 282.83 352.004 283.336 352.237 283.795C352.47 284.254 352.803 284.654 353.212 284.967C353.621 285.279 354.095 285.495 354.599 285.599C355.104 285.703 355.625 285.692 356.124 285.566C356.505 285.471 364.169 283.444 367.944 274.298L368.867 275.134C369.342 275.566 369.93 275.855 370.562 275.969C371.193 276.082 371.845 276.016 372.441 275.777C372.947 275.577 382.856 271.417 384.278 257.105C388.698 260.937 395.606 265.117 405.865 267.305C405.831 271.584 405.693 276.143 405.497 280.65C403.27 281.268 401.311 281.907 401.197 281.943C400.764 282.079 400.362 282.299 400.014 282.591C399.667 282.883 399.381 283.242 399.173 283.645C398.965 284.049 398.839 284.489 398.803 284.942C398.767 285.394 398.821 285.849 398.963 286.281C399.104 286.712 399.33 287.111 399.626 287.455C399.923 287.798 400.285 288.079 400.691 288.282C401.098 288.484 401.54 288.604 401.993 288.634C402.446 288.664 402.9 288.603 403.33 288.456C403.345 288.456 404.081 288.211 405.13 287.892C404.653 296.425 404.058 304.051 403.709 308.237C403.324 314.029 401.003 319.524 397.12 323.837C396.684 324.328 396.125 324.692 395.5 324.892C394.875 325.091 394.208 325.118 393.569 324.97C382.96 322.551 372.906 318.144 363.937 311.983C362.525 310.995 361.327 309.732 360.416 308.27C359.504 306.807 358.897 305.176 358.631 303.473C358.428 302.092 358.298 300.701 358.241 299.306V295.834C357.731 292.34 354.289 291.894 352.278 293.529C348.666 297.508 345.316 296.742 345.016 296.665ZM230.55 274.419L236.416 287.885L221.973 293.761C218.371 289.616 215.546 284.855 213.632 279.708C218.986 277.138 224.685 275.357 230.55 274.419Z" fill="#1A1A1A"/>
<path d="M360.809 386.372C360.522 386.025 360.171 385.738 359.773 385.527C359.376 385.316 358.941 385.185 358.493 385.142C358.045 385.099 357.593 385.144 357.163 385.276C356.732 385.408 356.332 385.623 355.985 385.909C355.638 386.195 355.351 386.547 355.14 386.944C354.928 387.342 354.798 387.777 354.754 388.225C354.711 388.673 354.757 389.125 354.889 389.555C355.02 389.985 355.235 390.385 355.522 390.732C355.981 391.289 356.452 391.835 356.934 392.37C357.544 393.04 358.394 393.441 359.299 393.486C360.204 393.53 361.09 393.215 361.763 392.608C362.435 392.001 362.841 391.153 362.89 390.248C362.938 389.343 362.627 388.456 362.024 387.78C361.609 387.32 361.204 386.851 360.809 386.372Z" fill="#1A1A1A"/>
<path d="M381.341 287.233C381.37 287.239 384.27 287.848 386.715 288.509C387.587 288.732 388.513 288.603 389.291 288.149C390.069 287.695 390.636 286.953 390.871 286.083C391.106 285.214 390.99 284.287 390.546 283.502C390.103 282.718 389.369 282.14 388.503 281.893C385.864 281.18 382.871 280.551 382.745 280.525C381.863 280.36 380.953 280.547 380.207 281.046C379.462 281.545 378.942 282.316 378.759 283.194C378.576 284.071 378.744 284.986 379.228 285.741C379.711 286.496 380.471 287.032 381.345 287.233H381.341Z" fill="#1A1A1A"/>
</g>
</svg>
