<svg width="725" height="491" viewBox="0 0 725 491" fill="none" xmlns="http://www.w3.org/2000/svg">
<path d="M0 10C0 4.47716 4.47715 0 10 0H715C720.523 0 725 4.47715 725 10V434.311C444.025 509.747 285.294 510.046 0 434.311V10Z" fill="#E9E9E9"/>
<mask id="mask0" style="mask-type:alpha" maskUnits="userSpaceOnUse" x="0" y="0" width="725" height="491">
<path d="M0 10C0 4.47716 4.47715 0 10 0H715C720.523 0 725 4.47715 725 10V434.311C444.025 509.747 285.294 510.046 0 434.311V10Z" fill="#CC6060"/>
</mask>
<g mask="url(#mask0)">
<path d="M380.649 263.911C381.388 263.911 382.109 263.692 382.723 263.282C383.337 262.872 383.816 262.289 384.098 261.607C384.381 260.925 384.455 260.174 384.311 259.45C384.166 258.726 383.811 258.061 383.289 257.539C382.767 257.017 382.102 256.661 381.378 256.517C380.653 256.373 379.903 256.447 379.221 256.729C378.539 257.012 377.956 257.49 377.545 258.104C377.135 258.718 376.916 259.44 376.916 260.178C376.916 261.168 377.31 262.118 378.01 262.818C378.71 263.518 379.659 263.911 380.649 263.911Z" fill="black"/>
<path d="M395.928 263.911C396.667 263.911 397.388 263.692 398.002 263.282C398.616 262.872 399.095 262.289 399.377 261.607C399.66 260.925 399.734 260.174 399.59 259.45C399.446 258.726 399.09 258.061 398.568 257.539C398.046 257.017 397.381 256.661 396.657 256.517C395.932 256.373 395.182 256.447 394.5 256.729C393.818 257.012 393.235 257.49 392.824 258.104C392.414 258.718 392.195 259.44 392.195 260.178C392.195 260.669 392.292 261.154 392.479 261.607C392.667 262.06 392.942 262.472 393.288 262.818C393.635 263.165 394.047 263.44 394.5 263.627C394.953 263.815 395.438 263.911 395.928 263.911V263.911Z" fill="black"/>
<path d="M360.42 350.641C360.42 349.903 360.202 349.181 359.791 348.567C359.381 347.953 358.798 347.474 358.116 347.192C357.434 346.909 356.684 346.835 355.959 346.979C355.235 347.123 354.57 347.478 354.048 348C353.526 348.522 353.17 349.187 353.026 349.912C352.882 350.636 352.956 351.386 353.238 352.069C353.521 352.751 353.999 353.334 354.613 353.744C355.227 354.154 355.949 354.373 356.687 354.373C357.677 354.373 358.626 353.98 359.326 353.28C360.026 352.58 360.42 351.631 360.42 350.641Z" fill="black"/>
<path d="M359.461 360.182C358.723 360.182 358.001 360.401 357.387 360.811C356.773 361.222 356.295 361.805 356.012 362.487C355.73 363.169 355.656 363.92 355.8 364.644C355.944 365.368 356.299 366.033 356.821 366.555C357.343 367.077 358.009 367.433 358.733 367.577C359.457 367.721 360.207 367.647 360.89 367.364C361.572 367.082 362.155 366.603 362.565 365.989C362.975 365.375 363.194 364.654 363.194 363.915C363.194 362.925 362.801 361.976 362.101 361.276C361.401 360.576 360.451 360.182 359.461 360.182Z" fill="black"/>
<path d="M243.182 292.13C243.682 300.862 245.808 309.03 249.171 315.13C250.946 318.432 253.601 321.177 256.842 323.061C260.082 324.945 263.782 325.894 267.529 325.802C267.352 335.372 266.952 350.759 266.096 364.442C263.019 365.604 260.353 367.646 258.429 370.314C256.505 372.981 255.409 376.156 255.278 379.442C254.86 389.461 254.898 403.852 257.389 415.93C255.494 418.342 254.479 421.328 254.51 424.394C254.542 427.461 255.618 430.425 257.562 432.797L268.962 446.603L261.515 453.864C261.033 454.316 260.687 454.893 260.515 455.531C260.327 456.272 260.391 457.053 260.697 457.753C261.003 458.453 261.533 459.031 262.204 459.396L294.173 476.745C295.195 477.293 296.086 478.057 296.784 478.983C297.482 479.909 297.971 480.976 298.216 482.109C299.286 487.194 302.706 496.139 313.523 496.139H408.023C414.202 496.139 419.229 490.521 419.229 483.615V478.289C419.249 475.232 418.215 472.261 416.301 469.877C417.775 468.74 419.09 467.411 420.212 465.926C421.892 463.616 422.902 460.886 423.13 458.039C423.358 455.191 422.796 452.336 421.505 449.787L420.089 446.958C418.83 444.444 418.174 441.67 418.174 438.858V407.241C421.948 404.822 429.821 398.268 431.749 384.79C432.2 381.454 432.234 378.075 431.849 374.731C430.632 363.064 426.249 335.945 411.156 317.505L445.136 312.665L453.129 353.737L438.081 360.605C437.202 361.014 436.504 361.732 436.121 362.622C435.737 363.512 435.694 364.513 436 365.432C437.011 368.052 440.049 367.24 440.5 367.032L458.426 358.851C459.126 358.532 459.698 357.986 460.05 357.302C460.402 356.617 460.513 355.835 460.366 355.079L459.474 350.494L505.799 322.738C506.491 322.327 507.016 321.684 507.28 320.923C507.544 320.163 507.531 319.333 507.242 318.581C495.679 288.861 476.814 263.123 468.806 252.928L476.068 247.675C476.448 247.401 476.767 247.051 477.007 246.648C477.246 246.245 477.4 245.797 477.459 245.332C477.518 244.868 477.482 244.395 477.351 243.945C477.221 243.495 477 243.077 476.701 242.715C466.442 230.309 453.677 223.045 444.771 219.136C439.923 217.014 434.763 215.691 429.491 215.218C430.55 211.45 431.105 207.559 431.142 203.645C431.152 203.155 431.055 202.668 430.86 202.218C430.665 201.768 430.376 201.365 430.012 201.036C429.647 200.707 429.217 200.461 428.749 200.313C428.281 200.165 427.787 200.12 427.3 200.179L422.673 200.745C425.545 193.529 425.506 185.481 422.565 178.292C422.256 177.455 421.645 176.765 420.852 176.355C420.126 175.997 419.296 175.906 418.509 176.099C417.723 176.293 417.03 176.758 416.552 177.412C416.485 177.505 409.661 186.676 394.708 190.493C389.751 191.702 384.619 192.029 379.548 191.46C371.201 190.572 362.762 191.247 354.662 193.452C334.742 199.126 321.997 218.423 325.013 238.338C326.275 246.739 330.288 254.485 336.423 260.36C336.226 263.541 336.584 266.732 337.483 269.79C339.652 278.674 346.338 281.559 351.568 282.023V297.64C347.807 303.9 335.347 303.808 330.515 303.522C330.783 291.957 328.846 280.446 324.808 269.604C325.747 269.704 326.682 269.804 327.64 269.904C327.759 269.917 327.879 269.923 327.999 269.923C328.901 269.922 329.767 269.565 330.408 268.93C331.048 268.295 331.413 267.433 331.422 266.53C331.403 265.654 331.059 264.815 330.459 264.176C329.858 263.537 329.042 263.143 328.168 263.069C325.95 262.837 323.792 262.6 321.675 262.361C320.744 260.53 319.392 258.945 317.731 257.736C316.07 256.527 314.146 255.728 312.117 255.404L302.623 253.896C301.063 253.639 299.462 253.805 297.988 254.377C296.514 254.949 295.22 255.907 294.242 257.149C293.874 257.621 293.553 258.127 293.283 258.661C291.435 258.386 289.768 258.131 288.343 257.909C285.177 257.386 282.044 256.676 278.961 255.782C268.596 252.899 251.417 251.915 246.51 268.597C245.156 273.197 243.578 278.397 243.21 284.145V284.162C242.969 286.153 242.935 288.164 243.11 290.162C243.135 290.816 243.142 291.466 243.182 292.13ZM394.511 489.281H376.55V472.613H394.511V489.281ZM344.117 268.066C344.092 267.961 344.056 267.839 344.017 267.737C343.291 265.212 343.055 262.57 343.323 259.955C343.406 258.755 343.913 257.623 344.753 256.762C345.593 255.901 346.712 255.367 347.91 255.255C349.06 255.069 350.238 255.297 351.235 255.9C352.232 256.502 352.981 257.44 353.35 258.544C353.632 259.321 353.857 260.118 354.022 260.927C354.138 261.577 354.427 262.184 354.858 262.683C355.367 263.248 356.049 263.628 356.797 263.763C357.546 263.899 358.318 263.782 358.992 263.431C359.887 262.94 360.738 262.374 361.535 261.737C364.156 259.649 366.27 256.996 367.72 253.975C369.17 250.954 369.919 247.645 369.909 244.294V242.113C369.87 239.401 370.894 236.781 372.761 234.813C373.744 233.802 374.931 233.013 376.243 232.498C377.555 231.983 378.962 231.754 380.37 231.826C383.391 231.912 386.393 232.326 389.324 233.06C390.628 235.919 392.725 238.343 395.367 240.045C398.008 241.747 401.082 242.655 404.224 242.66C404.224 242.66 409.945 242.205 413.591 244.487C431.891 257.251 444.091 283.229 449.723 297.354C449.888 297.762 450.132 298.133 450.441 298.446C450.749 298.759 451.117 299.009 451.522 299.18C451.927 299.351 452.361 299.441 452.801 299.445C453.241 299.448 453.677 299.365 454.084 299.199C454.492 299.034 454.863 298.79 455.176 298.482C455.489 298.173 455.739 297.806 455.91 297.401C456.081 296.996 456.171 296.561 456.174 296.122C456.178 295.682 456.094 295.246 455.929 294.838C453.082 287.86 448.923 278.213 444.94 270.191L463.24 256.952C470.697 266.42 488.374 290.407 499.768 318.362L471.443 335.333L461.879 310.282L468.739 309.305C469.633 309.196 470.452 308.752 471.031 308.063C471.61 307.374 471.907 306.491 471.861 305.592C471.822 305.127 471.688 304.675 471.468 304.264C471.248 303.853 470.946 303.491 470.58 303.201C470.215 302.91 469.794 302.698 469.344 302.576C468.894 302.454 468.423 302.426 467.961 302.492L423.911 308.767C426.711 286.531 416.523 272.944 412.327 268.406L413.127 253.206C413.181 252.416 412.967 251.63 412.518 250.977C412.07 250.323 411.414 249.84 410.657 249.606C410.162 249.464 409.641 249.436 409.133 249.523C408.625 249.611 408.143 249.812 407.723 250.111C407.303 250.41 406.957 250.8 406.709 251.252C406.461 251.704 406.317 252.206 406.29 252.72L405.29 271.681C405.06 276.686 404.082 281.628 402.39 286.344C401.503 288.831 400.355 291.216 398.964 293.46C397.836 295.219 396.208 296.601 394.29 297.43C392.372 298.258 390.25 298.495 388.196 298.111C378.546 296.467 369.284 293.049 360.879 288.03C360.127 287.568 359.505 286.921 359.071 286.151C358.638 285.381 358.408 284.514 358.403 283.63V278.53C358.4 278.038 358.292 277.552 358.085 277.105C357.878 276.659 357.578 276.261 357.205 275.94C356.832 275.619 356.394 275.382 355.922 275.244C355.449 275.107 354.952 275.072 354.465 275.142C353.081 275.348 345.984 275.953 344.117 268.066ZM358.422 302.819L382.531 307.962C382.789 323.462 391.602 328.188 384.154 333.95C380.928 336.356 378.651 339.821 377.725 343.737L375.602 353.494L372.934 339.405C372.841 338.917 372.643 338.456 372.353 338.052C372.064 337.648 371.69 337.312 371.258 337.066C361.468 331.51 358.899 325.319 358.422 323.908V302.819ZM328.57 415.175C333.226 410.146 347.97 388.854 342.004 325.375L351.568 323.724C351.568 323.724 351.837 334.088 366.489 342.204L372.002 371.313C372.149 372.09 372.56 372.792 373.165 373.3C373.77 373.808 374.532 374.092 375.322 374.102H375.369C376.152 374.102 376.91 373.834 377.52 373.343C378.129 372.852 378.551 372.167 378.717 371.402L384.422 345.19C384.866 342.988 386.11 341.029 387.914 339.69L388.241 339.451C390.181 338.004 391.763 336.132 392.868 333.979C400.488 349.679 410.85 376.226 411.314 405.287V438.853C411.319 442.729 412.222 446.55 413.951 450.018L415.369 452.849C416.096 454.258 416.42 455.84 416.306 457.421C416.192 459.003 415.643 460.522 414.721 461.811C413.472 463.427 411.907 464.77 410.121 465.76H328.57V415.175ZM262.125 379.724C262.228 377.157 263.322 374.73 265.178 372.952C267.033 371.175 269.505 370.186 272.074 370.193H280.742C280.315 370.792 280.093 371.512 280.107 372.247C280.122 372.982 280.374 373.693 280.824 374.273L285.662 380.482L263.117 408.74C261.97 399.114 261.638 389.407 262.125 379.724ZM289.825 359.924L286.788 363.343H273.03C273.83 349.851 274.213 335.038 274.384 325.769C279.089 325.499 283.767 324.889 288.384 323.945C289.979 336.194 290.064 350.02 289.82 359.921L289.825 359.924ZM316.042 340.726C316.755 357.018 318.087 383.926 317.008 401.044L312.95 404.355L287.981 372.311L316.042 340.726ZM273.882 441.797L262.847 428.429C261.894 427.265 261.367 425.809 261.354 424.304C261.341 422.799 261.844 421.335 262.777 420.154L281.131 397.148L299.842 416.405L273.882 441.797ZM321.717 456.385L297.87 430.085L317.712 410.145C318.486 412.346 319.874 414.279 321.712 415.715L321.717 456.385ZM299.6 261.424C299.826 261.134 300.127 260.911 300.469 260.777C300.812 260.644 301.185 260.606 301.547 260.667L311.042 262.176C312.027 262.332 312.96 262.723 313.761 263.318C314.563 263.912 315.208 264.691 315.642 265.589C325.866 286.795 325.788 323.331 316.96 322.817L311.35 322.064C310.218 321.912 309.19 321.32 308.491 320.416C307.792 319.512 307.477 318.369 307.615 317.234C310.251 295.064 303.536 274.021 299.298 263.451C299.161 263.118 299.117 262.753 299.17 262.396C299.223 262.039 299.372 261.704 299.6 261.424ZM277.125 262.384C280.464 263.351 283.857 264.119 287.286 264.684L289.142 264.966C290.28 265.139 291.354 265.607 292.254 266.324C293.155 267.041 293.851 267.983 294.274 269.053C298.471 280.061 300.841 291.681 301.29 303.453L294.841 302.601C292.616 302.3 290.553 301.268 288.977 299.669C287.401 298.069 286.399 295.992 286.13 293.762C285.046 285.118 281.418 271.079 269.539 261.413C272.102 261.36 274.659 261.687 277.125 262.384ZM252.85 271.2C254.722 266.644 257.319 263.84 259.798 263.7C259.869 263.7 259.939 263.694 260.011 263.694C265.326 263.694 271.821 274.973 272.711 290.444C273.611 306.122 268.289 318.179 262.936 318.485C260.451 318.635 255.045 315.429 253.826 309.011C268.38 314.023 269.154 295.711 268.962 292.385C268.845 289.625 268.085 286.93 266.741 284.515C264.685 280.931 261.759 278.844 258.28 278.479C257.377 278.385 256.472 278.653 255.766 279.225C255.06 279.797 254.61 280.626 254.515 281.529C254.315 283.411 255.815 284.565 257.565 285.295C268.133 289.707 262.406 307.613 255.359 301.961C251.113 298.554 250.226 293.095 249.951 289.476C249.69 283.252 250.675 277.038 252.85 271.2Z" fill="black"/>
</g>
</svg>
