<svg viewBox="0 0 6 6" fill="none" xmlns="http://www.w3.org/2000/svg">
<path d="M2.97348 3.47658L1.90819 4.54186L2.10107 4.73474L1.84391 4.79903L1.66569 4.62082C1.58341 4.72527 1.47967 4.8418 1.36172 4.95975C1.24378 5.07769 1.12724 5.18144 1.02279 5.26372L1.07242 5.31336L1.00812 5.37765L0.943844 5.31337C0.937157 5.36041 0.915725 5.40575 0.879544 5.44194C0.790776 5.53069 0.646859 5.53069 0.558092 5.44194C0.469324 5.35317 0.469324 5.20924 0.558092 5.12047C0.594273 5.08429 0.639618 5.06286 0.686653 5.05618L0.622381 4.99191L0.68667 4.92761L0.736298 4.97723C0.818584 4.87278 0.922324 4.75624 1.04027 4.6383C1.15821 4.52035 1.27475 4.41661 1.3792 4.33433L1.201 4.15613L1.26529 3.89896L1.45816 4.09183L2.52344 3.02655L2.73239 3.2355L1.69925 4.26863L1.7314 4.30078L2.76453 3.26764L2.97348 3.47658Z" fill="#fff"/>
<path d="M3.06738 2.96476L3.27633 3.1737L5.4763 0.973725L5.50845 0.491547L5.02627 0.523688L2.82629 2.72367L3.03524 2.93261L5.26737 0.700489L5.29951 0.732634L3.06738 2.96476Z" fill="#fff"/>
<path fill-rule="evenodd" clip-rule="evenodd" d="M0.973696 0.523661L4.54182 4.09179L4.73469 3.89892L4.79898 4.15608L4.62078 4.33428C4.72523 4.41657 4.84176 4.52031 4.95971 4.63826C5.07766 4.7562 5.1814 4.87274 5.26368 4.97719L5.12102 5.11985L5.12176 5.11912L5.31331 4.92757L5.3776 4.99186L5.31333 5.05613C5.36037 5.06282 5.40571 5.08425 5.44189 5.12043C5.53064 5.2092 5.53064 5.35312 5.44189 5.44189C5.35312 5.53064 5.2092 5.53064 5.12043 5.44189C5.08426 5.40571 5.06282 5.36036 5.05613 5.31333L4.99186 5.3776L4.92757 5.31332L5.11913 5.12176L5.11985 5.12102L4.97719 5.26368C4.87274 5.18139 4.7562 5.07765 4.63826 4.95971C4.52031 4.84176 4.41658 4.72523 4.33429 4.62078L4.15608 4.79899L3.89891 4.7347L4.09179 4.54182L0.523661 0.973696L0.491516 0.491516L0.973696 0.523661ZM4.30073 4.26858L0.732602 0.700447L0.700457 0.732593L4.26859 4.30072L4.30073 4.26858Z" fill="#fff"/>
</svg>
