<svg viewBox="0 0 1065 746" fill="none" xmlns="http://www.w3.org/2000/svg">
<path d="M1064.5 12V0.5H1041.5V12H1064.5ZM0.5 734V745.5H23.5V734H0.5ZM23.5 734C23.5 724.01 23.6905 714.215 24.0669 704.613L1.08455 703.712C0.696101 713.622 0.5 723.717 0.5 734H23.5ZM34.9005 609.405C38.7988 589.684 43.6562 570.979 49.4101 553.238L27.532 546.142C21.4859 564.784 16.4039 584.372 12.3371 604.945L34.9005 609.405ZM88.5429 466.986C98.6848 450.254 109.896 434.662 122.093 420.137L104.479 405.346C91.5293 420.768 79.6304 437.318 68.8741 455.063L88.5429 466.986ZM191.432 355.678C206.869 344.408 223.192 334.087 240.325 324.652L229.229 304.506C211.297 314.381 194.143 325.221 177.87 337.102L191.432 355.678ZM327.839 286.112C345.947 279.816 364.634 274.198 383.833 269.206L378.046 246.946C358.299 252.08 339.019 257.874 320.285 264.388L327.839 286.112ZM478.392 250.035C497.539 247.12 517.023 244.675 536.79 242.655L534.451 219.774C514.339 221.829 494.479 224.321 474.931 227.297L478.392 250.035ZM633.491 236.05C643.291 235.681 653.132 235.394 663.011 235.182L662.518 212.187C652.521 212.402 642.555 212.693 632.626 213.066L633.491 236.05ZM663.011 235.182C673.832 234.95 684.366 234.622 694.618 234.2L693.672 211.219C683.576 211.635 673.194 211.959 662.518 212.187L663.011 235.182ZM798.623 225.641C821.418 222.65 842.312 219.029 861.459 214.84L856.543 192.371C838.101 196.407 817.854 199.921 795.631 202.837L798.623 225.641ZM961.68 180.831C983.831 169.499 1001.56 156.713 1015.63 142.788L999.446 126.441C987.262 138.5 971.529 149.957 951.204 160.355L961.68 180.831ZM1062.59 44.7543C1063.98 33.7169 1064.5 22.7408 1064.5 12H1041.5C1041.5 22.0085 1041.01 31.9967 1039.77 41.875L1062.59 44.7543Z" fill="#B6B6B6"/>
</svg>
